<svg id="Layer_1" data-name="Layer 1" xmlns="http://www.w3.org/2000/svg" viewBox="0 0 40 40"><defs><style>.cls-1{fill:#9aa9b5;}</style></defs><path class="cls-1" d="M6.89,33.15a1.44,1.44,0,0,1-1.66-1.32L2.71,20.31c-.22-1-.44-2-.67-3.06a1.42,1.42,0,0,1,1.46-1.9,1.73,1.73,0,0,1,.65.22c2.51,1.21,5,2.43,7.54,3.66.27.13.39.12.55-.17q3.19-5.68,6.42-11.36a1.39,1.39,0,0,1,2.1-.58,2,2,0,0,1,.51.64c2.11,3.73,4.23,7.47,6.32,11.21.21.39.37.39.73.21l7.62-3.69A1.39,1.39,0,0,1,38,16.57a2.29,2.29,0,0,1-.07.64q-1.66,7.35-3.34,14.72a1.39,1.39,0,0,1-1.52,1.22Z"/></svg>