<svg id="Layer_1" data-name="Layer 1" xmlns="http://www.w3.org/2000/svg" viewBox="0 0 48 48"><defs><style>.cls-1{fill:#8da3b5;}</style></defs><path class="cls-1" d="M18,3.84H29.78s.06.09.1.1a4.89,4.89,0,0,1,4,3.4,7.29,7.29,0,0,1,.23,2.75c0,.4.1.49.49.48q3.15,0,6.3,0a5,5,0,0,1,4.81,3.73c0,.15,0,.36.17.46v25.3c-.11,0-.1.12-.13.2a5,5,0,0,1-5.33,3.9H7.46a5,5,0,0,1-5.3-5.3v-23a5,5,0,0,1,5.3-5.3c2,0,4,0,6,0,.34,0,.45-.08.43-.43s0-.91,0-1.36A5.05,5.05,0,0,1,17.61,4C17.75,4,17.94,4,18,3.84Zm6,6.72h5.09c.54,0,1.29.24,1.55-.1s.09-1.07.08-1.63a1.65,1.65,0,0,0-1.66-1.62c-3.38,0-6.75,0-10.13,0a1.65,1.65,0,0,0-1.65,1.68c0,.42,0,.84,0,1.26s.11.42.44.42C19.81,10.55,21.9,10.56,24,10.56Zm-.4,19.56V22.27a1.08,1.08,0,0,0-.29-.7,5,5,0,0,0-3.93-1.76c-.69,0-.83.11-.83.8v7c0,.68.1.79.78.82A6.26,6.26,0,0,1,23.6,30.12Zm.8,0a5.37,5.37,0,0,1,1.88-1.22,7.68,7.68,0,0,1,2.51-.46c.46,0,.67-.21.66-.67V20.44c0-.34-.12-.62-.48-.62a5,5,0,0,0-4.38,1.89.79.79,0,0,0-.19.47Zm-1.69.37c0-.26-.25-.31-.4-.41a5.84,5.84,0,0,0-3-.84c-1.11,0-1.54-.49-1.54-1.59,0-1.89,0-3.78,0-5.67,0-.14.13-.38-.15-.42a.59.59,0,0,0-.62.19.67.67,0,0,0-.13.44q0,3.9,0,7.82c0,.51.23.71.73.61A12.88,12.88,0,0,1,22.71,30.5Zm2.59,0a13.07,13.07,0,0,1,4.91.14c.72.15.92,0,.92-.76V22.4a1.94,1.94,0,0,0,0-.42c-.09-.35-.35-.45-.69-.42s-.18.33-.19.49c0,1.9,0,3.81,0,5.71a1.31,1.31,0,0,1-1.43,1.48,6.65,6.65,0,0,0-1.66.23A3.66,3.66,0,0,0,25.3,30.46Z"/></svg>