<svg id="Layer_1" data-name="Layer 1" xmlns="http://www.w3.org/2000/svg" viewBox="0 0 48 48"><defs><style>.cls-1{fill:#d6b769;}</style></defs><path class="cls-1" d="M24,40.14H20.33a2.61,2.61,0,0,1-2.74-2.74,6.16,6.16,0,0,0-2.29-4.87,13.42,13.42,0,0,1-4.9-12A13.68,13.68,0,1,1,32.82,32.44a6.29,6.29,0,0,0-2.41,5.06,2.6,2.6,0,0,1-2.66,2.64H24Zm0-10.89h1.95A.94.94,0,0,0,27,28.21c0-.93,0-1.87,0-2.8a1,1,0,0,1,.22-.55,4.36,4.36,0,1,0-6.41,0,.8.8,0,0,1,.23.59c0,.94,0,1.87,0,2.8a.92.92,0,0,0,1,1Q23,29.27,24,29.25Z"/><path class="cls-1" d="M24,43.61H19.46a.9.9,0,0,1-.89-.58.85.85,0,0,1,.23-1,1.21,1.21,0,0,1,.67-.26c3,0,6.05,0,9.07,0a.93.93,0,1,1,0,1.85Z"/><path class="cls-1" d="M24,47.08c-.72,0-1.44,0-2.16,0a.92.92,0,0,1-1-.93.94.94,0,0,1,1-.92h4.32a.94.94,0,0,1,1,.92.93.93,0,0,1-1.05.93Z"/><path class="cls-1" d="M11,30.13a.83.83,0,0,1-.44.72c-1.18.69-2.35,1.37-3.53,2a.92.92,0,1,1-.9-1.61c1.15-.68,2.3-1.35,3.47-2A.92.92,0,0,1,11,30.13Z"/><path class="cls-1" d="M38.05,29.14a2.49,2.49,0,0,1,.41.14l3.43,2a.88.88,0,0,1,.48.95.81.81,0,0,1-.66.74,1.12,1.12,0,0,1-.68-.07c-1.2-.66-2.38-1.35-3.56-2.05a.89.89,0,0,1-.39-1.05A1,1,0,0,1,38.05,29.14Z"/><path class="cls-1" d="M32.13,9a.93.93,0,0,1-.85-1.42c.32-.58.66-1.15,1-1.72s.63-1.11,1-1.65a.93.93,0,1,1,1.61.9c-.64,1.13-1.3,2.25-1.94,3.38A.93.93,0,0,1,32.13,9Z"/><path class="cls-1" d="M14,3.62a.86.86,0,0,1,.7.45c.68,1.17,1.36,2.33,2,3.5a.92.92,0,1,1-1.61.91c-.67-1.14-1.34-2.29-2-3.44A.93.93,0,0,1,14,3.62Z"/><path class="cls-1" d="M11,13.87a.92.92,0,0,1-1.42.85c-.95-.53-1.89-1.09-2.83-1.63-.2-.12-.41-.23-.61-.36a.93.93,0,0,1-.36-1.28A.91.91,0,0,1,7,11.13c.87.48,1.72,1,2.58,1.48.31.18.62.35.92.54A.84.84,0,0,1,11,13.87Z"/><path class="cls-1" d="M38.05,14.86a1,1,0,0,1-1-.66.91.91,0,0,1,.44-1.06l2.94-1.71c.2-.11.38-.23.59-.33a.91.91,0,0,1,1.22.37.9.9,0,0,1-.35,1.25c-1.15.68-2.31,1.34-3.47,2A1.33,1.33,0,0,1,38.05,14.86Z"/><path class="cls-1" d="M5.88,21.08h2a.92.92,0,0,1,1,.94.94.94,0,0,1-1,.91c-1.31,0-2.63,0-3.94,0a.93.93,0,1,1,0-1.85Z"/><path class="cls-1" d="M42.14,21.08h2a.93.93,0,1,1,0,1.85c-1.32,0-2.64,0-4,0a.93.93,0,1,1,0-1.85Z"/><path class="cls-1" d="M24.93,3.89V5.77a1,1,0,0,1-.92,1,.94.94,0,0,1-.93-1c0-1.28,0-2.55,0-3.83a.93.93,0,1,1,1.84,0C24.93,2.59,24.93,3.24,24.93,3.89Z"/></svg>