<svg id="Layer_1" data-name="Layer 1" xmlns="http://www.w3.org/2000/svg" viewBox="0 0 40 40"><defs><style>.cls-1{fill:#9aa9b5;}</style></defs><path class="cls-1" d="M37.36,10.33a2.94,2.94,0,0,0-.71-.74,5.85,5.85,0,0,0-3.16-1.17,8.86,8.86,0,0,0-1.63,0,10.12,10.12,0,0,0-2.22.51h0c-.31.12-3.8,1.67-7.8,3.47l-2.49-.76c-.87-.28-1.7-.55-2.54-.78l-1.17-.36h0a9.71,9.71,0,0,0-4-.74l-.27,0a10.19,10.19,0,0,0-1.68.68.94.94,0,0,0-.31,1.6,2.46,2.46,0,0,0,.56.45c1.1.67,2.21,1.34,3.3,2l1.53,1L9.49,18a.83.83,0,0,1-1-.12c-.89-.67-1.8-1.33-2.7-2a3.48,3.48,0,0,0-.69-.43,2.41,2.41,0,0,0-1.07-.16h0a2.16,2.16,0,0,0-1.34.65,1.43,1.43,0,0,0-.28.45s0,0,0,.06a1.17,1.17,0,0,0,0,.74.53.53,0,0,0,.06.14h0v0l0,.06c.4.78,1.78,3.9,2.49,5.49a2.33,2.33,0,0,0,1.35,1.28,6.24,6.24,0,0,0,3.29.17c2.16-.32,9.44-3.21,9.67-3.27a1.2,1.2,0,0,1,0,.19l-1.2,6.39c-.17.89-.35,1.77-.48,2.66s.49,1.51,1.24,1.26A5.11,5.11,0,0,0,21,30.47a7.55,7.55,0,0,0,1.52-2.26q1.16-2.52,2.33-5c0-.05,0-.11.07-.13a1.55,1.55,0,0,1,.06-.23c.8-1.72,1.6-3.43,2.39-5.15a1.05,1.05,0,0,1,.53-.53C30.3,16,32.72,14.86,35,13.51a9.77,9.77,0,0,0,2.19-1.58A1.11,1.11,0,0,0,37.36,10.33Z"/></svg>