<svg id="Layer_1" data-name="Layer 1" xmlns="http://www.w3.org/2000/svg" viewBox="0 0 48 48"><defs><style>.cls-1{fill:#d6b769;}</style></defs><path class="cls-1" d="M45.56,10.21c-.18.57-.34,1.14-.55,1.7a32.59,32.59,0,0,1-3.39,6.22c-.69,1.05-1.43,2.06-2.16,3.08a1,1,0,0,0-.24.73,9.37,9.37,0,0,1,0,1.06.91.91,0,0,1-.9.93.93.93,0,0,1-.89-.95V22.9a3.25,3.25,0,0,0-.86-2.61A41.7,41.7,0,0,1,32,12.83a8.64,8.64,0,0,1-.88-2.9,6.91,6.91,0,0,1,2.17-5.64A7,7,0,0,1,37,2.38c.13,0,.29,0,.37-.13h1.78c0,.07.07.07.13.08A7.2,7.2,0,0,1,45.41,8c0,.19,0,.42.15.58ZM38.34,7.67a1.81,1.81,0,1,0,1.8,1.81A1.82,1.82,0,0,0,38.34,7.67Z"/><path class="cls-1" d="M23.88,27.48a15.25,15.25,0,0,1-1.57,6.24,39,39,0,0,1-6.55,9.45,3.39,3.39,0,0,1-.31.34c-.18.17-.29.3,0,.5a.74.74,0,0,1,.25.88.81.81,0,0,1-.76.63c-.62,0-1.24.07-1.86.09a1.06,1.06,0,0,1-.78-.36A41.72,41.72,0,0,1,3.86,33.9a14,14,0,0,1-1.6-7.55,10.61,10.61,0,0,1,8.58-9.41A10.57,10.57,0,0,1,22,21.34,10.39,10.39,0,0,1,23.88,27.48ZM13,22.13a5.42,5.42,0,1,0,5.44,5.38A5.42,5.42,0,0,0,13,22.13Z"/><path class="cls-1" d="M27.86,32.92A.86.86,0,0,1,27,31.84a6.57,6.57,0,0,1,2.89-3.56.88.88,0,0,1,.95,1.48,6.41,6.41,0,0,0-2.17,2.64A.88.88,0,0,1,27.86,32.92Z"/><path class="cls-1" d="M23.08,42.15a.92.92,0,0,1-.37.69,11.59,11.59,0,0,1-3.63,1.91.88.88,0,0,1-1.15-.51.86.86,0,0,1,.53-1.16,14.51,14.51,0,0,0,3.24-1.7A.88.88,0,0,1,23.08,42.15Z"/><path class="cls-1" d="M27.28,35.71a3.26,3.26,0,0,1-.09.38,23.27,23.27,0,0,1-1.59,3.39c-.34.56-.84.75-1.3.48A.91.91,0,0,1,24,38.61a25.39,25.39,0,0,0,1.49-3.17.93.93,0,0,1,.83-.68.88.88,0,0,1,.94,1Z"/><path class="cls-1" d="M34.17,29.29A.9.9,0,1,1,34,27.5a8.83,8.83,0,0,0,1.36-.26,2.57,2.57,0,0,0,1.32-.87,1,1,0,0,1,1-.45.91.91,0,0,1,.51,1.49,4.52,4.52,0,0,1-2.74,1.69A7.39,7.39,0,0,1,34.17,29.29Z"/></svg>