<svg id="Layer_1" data-name="Layer 1" xmlns="http://www.w3.org/2000/svg" viewBox="0 0 48 48"><defs><style>.cls-1{fill:#8da3b5;}</style></defs><path class="cls-1" d="M42.43,10.4a5.63,5.63,0,0,0-1.53-.19H34.67c-.34,0-.45-.07-.44-.43a8.2,8.2,0,0,0-.18-2.61c0-.17-.1-.33-.16-.48a5,5,0,0,0-3.95-3.26H17.73c-.09.07-.22.06-.32.09a5.46,5.46,0,0,0-.93.37l-.07,0a5.09,5.09,0,0,0-2.48,2.84,5.4,5.4,0,0,0-.3,1.61c0,.47,0,.93,0,1.4s-.09.44-.44.43h-6a7.11,7.11,0,0,0-1.58.16l-.09,0a5.09,5.09,0,0,0-3.78,4.4V39.85A5.08,5.08,0,0,0,7,44.55h8.66q12.53,0,25,0h0A5.16,5.16,0,0,0,46.26,39V15.53A5.12,5.12,0,0,0,42.43,10.4ZM17.06,9.79c0-.42,0-.85,0-1.28a1.69,1.69,0,0,1,1.68-1.72c3.45,0,6.9,0,10.35,0a1.69,1.69,0,0,1,1.7,1.66c0,.57.19,1.29-.08,1.66s-11.07.1-13.22.11C17.17,10.23,17,10.16,17.06,9.79ZM16.66,22c0-.57.19-.74.79-.74h13c.59,0,.77.17.78.75v6.92c0,.56-.22.78-.79.78h-13c-.56,0-.78-.23-.78-.79ZM14.93,33.83l1.73-3.13a.73.73,0,0,1,.71-.39H30.5a.78.78,0,0,1,.76.48c.53,1,1.08,2,1.61,3,.25.45.1.75-.41.81a3.09,3.09,0,0,1-.43,0H15.73a1.16,1.16,0,0,1-.52-.06C14.9,34.36,14.75,34.16,14.93,33.83ZM8.18,10.52h0"/></svg>