<svg id="Layer_1" data-name="Layer 1" xmlns="http://www.w3.org/2000/svg" viewBox="0 0 48 48"><defs><style>.cls-1{fill:#8da3b5;}</style></defs><path class="cls-1" d="M46.26,15.53a5.12,5.12,0,0,0-3.83-5.13,5.63,5.63,0,0,0-1.53-.19H34.67c-.34,0-.45-.07-.44-.43a8.2,8.2,0,0,0-.18-2.61c0-.17-.1-.33-.16-.48a5,5,0,0,0-3.95-3.26H17.73c-.09.07-.22.06-.32.09a5.46,5.46,0,0,0-.93.37l-.07,0a5.09,5.09,0,0,0-2.48,2.84,5.4,5.4,0,0,0-.3,1.61c0,.47,0,.93,0,1.4s-.09.44-.44.43h-6a7.11,7.11,0,0,0-1.58.16l-.09,0a5.09,5.09,0,0,0-3.78,4.4V39.85A5.08,5.08,0,0,0,7,44.55H40.73A5.16,5.16,0,0,0,46.26,39ZM17.06,9.79c0-.42,0-.85,0-1.28a1.69,1.69,0,0,1,1.68-1.72c3.45,0,6.9,0,10.35,0a1.69,1.69,0,0,1,1.7,1.66c0,.57.19,1.29-.08,1.66s-11.07.1-13.22.11C17.17,10.23,17,10.16,17.06,9.79Zm.56,11.76a8.37,8.37,0,0,1,3.88-.85,8.39,8.39,0,0,1,3.88.85c.52.28,1.1.6,1.11,1.28s-.56,1.07-1.12,1.32a9,9,0,0,1-7.76,0c-.54-.25-1.1-.6-1.12-1.27S17.08,21.84,17.62,21.55Zm-1.13,6.5a9.51,9.51,0,0,0,4.73,1.25c.24,0,.29.09.29.33,0,1.17,0,1.18-1.17,1.05a6.88,6.88,0,0,1-3.09-1A1.49,1.49,0,0,1,16.49,28.05Zm.68,4.44a1.38,1.38,0,0,1-.66-1.57,9.14,9.14,0,0,0,4.83,1.23c.4,0,.65.08.8.48a6.66,6.66,0,0,0,.53.93A8.57,8.57,0,0,1,17.17,32.49ZM22,27.71a.28.28,0,0,1-.31.17,8.35,8.35,0,0,1-4.28-1,1.41,1.41,0,0,1-.86-1.69,10.46,10.46,0,0,0,6.24,1.17A8.77,8.77,0,0,0,22,27.71Zm5.27,6.62A4.31,4.31,0,1,1,31.53,30,4.33,4.33,0,0,1,27.25,34.33Z"/></svg>