<svg id="Layer_1" data-name="Layer 1" xmlns="http://www.w3.org/2000/svg" viewBox="0 0 40 40"><defs><style>.cls-1{fill:#9aa9b5;}</style></defs><path class="cls-1" d="M34,36.41H32.93c-.19,0-.26,0-.23-.25.09-.57.13-1.15.19-1.72.17-1.56.35-3.12.51-4.68q.32-2.85.61-5.69a2,2,0,0,0-.33-1.27,2.25,2.25,0,0,0-2-1H8a2,2,0,0,0-2,2.28c.21,2.1.44,4.19.67,6.28.2,1.93.41,3.85.63,5.78,0,.18,0,.22-.19.21H6a.57.57,0,0,0-.11,1.13,2.42,2.42,0,0,0,.47,0H33.63a3.05,3.05,0,0,0,.43,0,.6.6,0,0,0,.55-.61A.59.59,0,0,0,34,36.41Z"/><path class="cls-1" d="M20,15.11a6.83,6.83,0,1,0-6.83-6.84A6.86,6.86,0,0,0,20,15.11Z"/><path class="cls-1" d="M10,20.73c3.34,0,6.68,0,10,0H30c.32,0,.42-.06.39-.4a7.12,7.12,0,0,0-4.75-6,.59.59,0,0,0-.63.11,7.84,7.84,0,0,1-10.06,0,.43.43,0,0,0-.45-.09,7.07,7.07,0,0,0-4.85,6C9.6,20.61,9.65,20.73,10,20.73Z"/></svg>