<svg id="Layer_1" data-name="Layer 1" xmlns="http://www.w3.org/2000/svg" viewBox="0 0 48 48"><defs><style>.cls-1{fill:#d6b769;}</style></defs><path class="cls-1" d="M32.24,1.38a1.61,1.61,0,0,1,1,.83,1.44,1.44,0,0,1-.12,1.26A21.16,21.16,0,0,0,31,10c-.08.57-.14,1.14-.19,1.71,0,.2-.05.3-.3.3H17.55c-.26,0-.28-.1-.3-.3A21.56,21.56,0,0,0,16.05,6a25.3,25.3,0,0,0-1-2.39c-.56-1.11-.34-1.75.75-2.25h.53c.24.11.47.21.7.33l3.77,1.88c.23.12.38.13.56-.08.36-.39.75-.75,1.12-1.12a3.44,3.44,0,0,1,1.29-1h.53a2.65,2.65,0,0,1,1,.69c.47.49,1,1,1.42,1.44a.4.4,0,0,0,.57.08l4.46-2.21Z"/><path class="cls-1" d="M24,14.73h7.74a.59.59,0,0,1,.54.21c1.85,2.33,3.83,4.56,5.6,7a16.67,16.67,0,0,1,3.3,11.18A13.23,13.23,0,0,1,33.8,44.48,21.8,21.8,0,0,1,22.87,46.6a21.38,21.38,0,0,1-7.2-1.45,13.41,13.41,0,0,1-8.2-8.4A15.17,15.17,0,0,1,6.89,30a17.38,17.38,0,0,1,2.79-7.58,45.74,45.74,0,0,1,3-3.8c1-1.18,1.94-2.34,2.89-3.51a.8.8,0,0,1,.7-.34Zm3.74,13.43a5,5,0,0,0-.09,10,5,5,0,1,0,.09-10Zm-6.69-.82a12.05,12.05,0,0,0,2.8-.34,5.74,5.74,0,0,0,2.52-1.21,1.13,1.13,0,0,0,0-1.89,3.79,3.79,0,0,0-1.27-.78,10.9,10.9,0,0,0-8.06,0,3.44,3.44,0,0,0-1.48,1,1.05,1.05,0,0,0,0,1.44,3.26,3.26,0,0,0,1.09.83A10,10,0,0,0,21.09,27.34Zm-5.72.23a1.67,1.67,0,0,0,1,2l.23.13a10,10,0,0,0,4.8,1,.26.26,0,0,0,.27-.17,7.33,7.33,0,0,1,.95-1.56A12,12,0,0,1,15.37,27.57Zm7.12,9.64A6.81,6.81,0,0,1,21.73,36a.45.45,0,0,0-.51-.34,12.19,12.19,0,0,1-3.41-.39,9.17,9.17,0,0,1-2.43-1c-.26,1,.26,1.52,1,2l.23.12A10.61,10.61,0,0,0,22.49,37.21Zm-7.12-6.32a1.49,1.49,0,0,0,.73,1.78,4.6,4.6,0,0,0,.6.37,10,10,0,0,0,4.1.93c.31,0,.37-.06.32-.36a3.8,3.8,0,0,1,0-1c0-.26-.05-.29-.27-.3A10.93,10.93,0,0,1,15.37,30.89Z"/></svg>