<svg id="Layer_1" data-name="Layer 1" xmlns="http://www.w3.org/2000/svg" viewBox="0 0 40 40"><defs><style>.cls-1{fill:#9aa9b5;}</style></defs><path class="cls-1" d="M20,6.91H10.19a1.54,1.54,0,0,0-1.35.69L3.71,14.64c-.37.52-.36.75.06,1.2L19.34,32.71c.48.52.84.52,1.31,0l3.18-3.43L36.24,15.83a.75.75,0,0,0,.07-1.16c-1.71-2.35-3.42-4.69-5.12-7a1.6,1.6,0,0,0-1.41-.72Z"/><path class="cls-1" d="M20,6.91h9.78a1.6,1.6,0,0,1,1.41.72c1.7,2.36,3.41,4.7,5.12,7.05a.75.75,0,0,1-.07,1.16L23.83,29.28l-3.18,3.43c-.47.52-.83.52-1.31,0L3.77,15.84c-.42-.45-.43-.68-.06-1.2l5.13-7a1.54,1.54,0,0,1,1.35-.69Z"/></svg>