<svg id="Layer_1" data-name="Layer 1" xmlns="http://www.w3.org/2000/svg" viewBox="0 0 48 48"><defs><style>.cls-1{fill:#8da3b5;}</style></defs><path class="cls-1" d="M24,44.55c-5.6,0-11.2,0-16.8,0a5.15,5.15,0,0,1-5.45-5.46V15.76a5.15,5.15,0,0,1,5.47-5.45c2,0,4,0,6,0,.46,0,.55-.13.54-.56a8.14,8.14,0,0,1,.18-2.55,5.1,5.1,0,0,1,4.79-3.74c3.53,0,7.07,0,10.6,0a5.11,5.11,0,0,1,5,5,13.83,13.83,0,0,1,0,1.44c0,.37.12.43.45.42h6.16a5.14,5.14,0,0,1,5.39,5.41V39.16a5.14,5.14,0,0,1-5.42,5.39C35.23,44.56,29.61,44.55,24,44.55Zm-7.74-7.28a1.7,1.7,0,0,0,1.4-.85c1.17-1.94,2.33-3.87,3.48-5.82a1.65,1.65,0,0,0-.59-2.4q-2.88-1.77-5.81-3.49a1.65,1.65,0,0,0-2.39.61q-1.75,2.88-3.46,5.77a1.67,1.67,0,0,0,.6,2.44L15.19,37A1.94,1.94,0,0,0,16.25,37.27ZM37.7,32.54a5.14,5.14,0,1,0-5.12,5.16A5.15,5.15,0,0,0,37.7,32.54ZM24,25.52a2,2,0,0,0,.68-.11c3-1,5.93-2,8.9-3a1.73,1.73,0,0,0,.22-3.29l-5.86-2.93a1.69,1.69,0,0,0-2.45.83c-.53,1-1,2.07-1.56,3.1s-1,2-1.46,3A1.68,1.68,0,0,0,24,25.52Zm0-15.21c2.15,0,4.31,0,6.47,0,.33,0,.43-.08.41-.42s0-.89,0-1.33a1.67,1.67,0,0,0-1.66-1.68c-3.46,0-6.92,0-10.37,0a1.69,1.69,0,0,0-1.66,1.69c0,.43,0,.86,0,1.28s.12.46.48.46C19.74,10.3,21.86,10.31,24,10.31Z"/><path class="cls-1" d="M14.42,28.52l.25.14c.78.47,1.55.95,2.34,1.4.26.15.29.27.13.52-.48.77-.94,1.55-1.4,2.33-.12.21-.22.27-.45.12-.8-.5-1.61-1-2.42-1.45-.16-.09-.24-.16-.12-.36.52-.83,1-1.67,1.51-2.51C14.31,28.64,14.37,28.58,14.42,28.52Z"/><path class="cls-1" d="M32.58,34.28a1.71,1.71,0,1,1,1.69-1.7A1.73,1.73,0,0,1,32.58,34.28Z"/></svg>