<svg id="Layer_1" data-name="Layer 1" xmlns="http://www.w3.org/2000/svg" viewBox="0 0 48 48"><defs><style>.cls-1{fill:#8da3b5;}</style></defs><path class="cls-1" d="M44.72,30a3.89,3.89,0,0,1-2.27.63H28.23c-.4,0-.52.1-.5.5,0,.7,0,1.4,0,2.1s-.35,1.15-1.14,1.15H21.4c-.79,0-1.14-.35-1.14-1.15s0-1.46,0-2.19c0-.33-.09-.41-.41-.41-4.73,0-9.45,0-14.18,0a4.35,4.35,0,0,1-2.59-.76.88.88,0,0,0-1.35.25v9a5.15,5.15,0,0,0,5.45,5.46c5.6,0,11.2,0,16.8,0s11.24,0,16.85,0a5.14,5.14,0,0,0,5.42-5.39V30.09C45.83,29.52,45.42,29.5,44.72,30Z"/><path class="cls-1" d="M5.24,28.72c4.9,0,9.8,0,14.7,0,.29,0,.35-.1.32-.35s0-.29,0-.44c0-.73.35-1.08,1.07-1.08h5.34c.72,0,1.06.35,1.07,1.08s0,.78.8.78H42.32A3.74,3.74,0,0,0,46.26,26V15.72a5.14,5.14,0,0,0-5.39-5.41H34.71c-.33,0-.47-.05-.45-.42a13.83,13.83,0,0,0,0-1.44,5.11,5.11,0,0,0-5-5c-3.53,0-7.07,0-10.6,0a5.1,5.1,0,0,0-4.79,3.74,8.14,8.14,0,0,0-.18,2.55c0,.43-.08.57-.54.56-2,0-4,0-6,0a5.15,5.15,0,0,0-5.47,5.45V26a.35.35,0,0,0,0,.11A3.69,3.69,0,0,0,5.24,28.72ZM17.14,9.86c0-.42,0-.85,0-1.28a1.69,1.69,0,0,1,1.66-1.69c3.46,0,6.91,0,10.37,0a1.69,1.69,0,0,1,1.67,1.68c0,.44,0,.89,0,1.33s-.08.42-.41.42c-2.16,0-4.31,0-6.47,0s-4.24,0-6.36,0C17.26,10.32,17.11,10.26,17.14,9.86Z"/></svg>