<svg xmlns="http://www.w3.org/2000/svg" viewBox="0 0 24 24"><defs><style>.cls-1{fill:#93d1bc;}.cls-2{fill:#fff;}</style></defs><g id="Layer_2" data-name="Layer 2"><rect class="cls-1" x="0.3" y="0.16" width="23.7" height="23.7" rx="4"/></g><g id="Layer_1" data-name="Layer 1"><path class="cls-2" d="M10,5.11l.2-.21,0,0,0,0c-.17-.18-.34-.35-.52-.52,0,0,0,0,0,0l-.19.2s0,0,0,0l.5.52A0,0,0,0,0,10,5.11Z"/><path class="cls-2" d="M13,5.13l0,0,.5-.52s0,0,0,0l-.19-.2s0,0,0,0l-.51.51s0,0,0,.05l.21.21Z"/><path class="cls-2" d="M11.35,4.43h.27s0,0,0,0V3.68s0,0,0,0h-.27s0,0,0,0V4.4S11.32,4.43,11.35,4.43Z"/><path class="cls-2" d="M9.19,6.55h.34s.05,0,.05,0V6.24s0,0,0,0h-.7s0,0,0,0V6.5s0,0,0,0Z"/><path class="cls-2" d="M13.39,6.24V6.5s0,0,0,0h.69s0,0,0,0V6.24s0,0,0,0h-.7S13.39,6.21,13.39,6.24Z"/><path class="cls-2" d="M16.21,8.7A2.58,2.58,0,0,0,15.14,8a5.76,5.76,0,0,0-1-.26h0A8.25,8.25,0,0,0,13,7.6V6.33a1.65,1.65,0,0,0-.1-.58A1.5,1.5,0,0,0,10,6.33V7.61h0A6.75,6.75,0,0,0,8,8,2.28,2.28,0,0,0,6.67,9a2.31,2.31,0,0,0-.26,1.12v6.38A1.87,1.87,0,0,0,7,17.91a.17.17,0,0,1,.06.15c0,.33,0,.66,0,1a.67.67,0,0,0,.71.71h.59a.64.64,0,0,0,.63-.6c0-.13,0-.26,0-.39h5.13c0,.13,0,.26,0,.4a.64.64,0,0,0,.61.59h.63a.78.78,0,0,0,.31-.06.68.68,0,0,0,.38-.63c0-.33,0-.67,0-1a.18.18,0,0,1,.07-.15,1.91,1.91,0,0,0,.58-1.4V10.15A2.14,2.14,0,0,0,16.21,8.7ZM8.65,17.19a1,1,0,0,1,0-1.92,1,1,0,0,1,.95,1A1,1,0,0,1,8.65,17.19Zm4.13-1.54v0s0,.05-.08.05H12s0,0,0,0v.66a.08.08,0,0,1-.06.09h-.81a.09.09,0,0,1-.05-.09v-.66a0,0,0,0,0,0,0H10.4a.09.09,0,0,1-.09-.05v-.81a.1.1,0,0,1,.09-.06h.66s0,0,0,0v-.67a.07.07,0,0,1,.07-.07H12a.11.11,0,0,1,0,.08v.65s0,0,0,0h.66c.06,0,.08,0,.08.09Zm1.65,1.54a1,1,0,0,1-.95-1,1,1,0,1,1,.95,1Zm1-4c0,.1,0,.13-.12.13H7.82c-.09,0-.12,0-.12-.13v-3c0-.09,0-.12.12-.12h7.46c.09,0,.12,0,.12.12Z"/></g></svg>