<svg xmlns="http://www.w3.org/2000/svg" viewBox="0 0 24 24"><defs><style>.cls-1{fill:#93d1bc;}.cls-2{fill:#fff;}</style></defs><g id="Layer_2" data-name="Layer 2"><rect class="cls-1" x="0.15" y="0.15" width="23.7" height="23.7" rx="4"/></g><g id="Layer_1" data-name="Layer 1"><path class="cls-2" d="M5.82,12a10.14,10.14,0,0,1,.76-3.65.32.32,0,0,1,.49-.2A1.64,1.64,0,0,1,8,9.29a.9.9,0,0,0,.74.71,1,1,0,0,0,1-.42.85.85,0,0,0,.11-.76c-.09-.37-.2-.73-.29-1.1a3,3,0,0,1,.54-2.45,3.54,3.54,0,0,1,1-.93c.2-.14.32-.15.46,0a.38.38,0,0,1,.09.45A3.21,3.21,0,0,0,11.81,7a1.75,1.75,0,0,0,.42.55,1.2,1.2,0,0,0,1.84-.26,3,3,0,0,0,.31-.62c0-.15.12-.26.29-.28A.34.34,0,0,1,15,6.6a2.12,2.12,0,0,1,0,2.34,1.74,1.74,0,0,0-.22,1.59,1.23,1.23,0,0,0,1.18.83,1.19,1.19,0,0,0,.9-.5,2.43,2.43,0,0,0,.32-.51.32.32,0,0,1,.35-.19.32.32,0,0,1,.28.25,6.37,6.37,0,0,1,.31,2,5,5,0,0,1-1.81,3.75c-.1.08-.14.09-.21,0-.81-1.37-1.63-2.73-2.43-4.1a1.74,1.74,0,0,0-1.54-.9,2,2,0,0,0-1.88,1.07c-.82,1.34-1.61,2.7-2.41,4.05-.08.15-.13.12-.24,0a5.1,5.1,0,0,1-1.75-3.14A7.3,7.3,0,0,1,5.82,12Z"/><path class="cls-2" d="M12.07,19.77c-1.13,0-2.27,0-3.41,0a1.25,1.25,0,0,1-1.18-.71A1.11,1.11,0,0,1,7.55,18l2.34-3.87,1-1.69a1.33,1.33,0,0,1,2.34,0c1.11,1.85,2.22,3.71,3.34,5.55a1.19,1.19,0,0,1-.83,1.81,1.67,1.67,0,0,1-.32,0Zm0-5.75h-.31a.51.51,0,0,0-.47.57c.08.61.15,1.22.23,1.83a.53.53,0,0,0,.54.48.53.53,0,0,0,.54-.48c.07-.61.15-1.21.22-1.81a.49.49,0,0,0-.34-.56A1.44,1.44,0,0,0,12.09,14Zm0,3.43a.54.54,0,1,0,0,1.08.58.58,0,0,0,.6-.54A.56.56,0,0,0,12.1,17.45Z"/></g></svg>