<svg xmlns="http://www.w3.org/2000/svg" viewBox="0 0 24 24"><defs><style>.cls-1{fill:#93d1bc;}.cls-2{fill:#fff;}</style></defs><g id="Layer_2" data-name="Layer 2"><rect class="cls-1" x="0.15" y="0.16" width="23.7" height="23.7" rx="4"/></g><g id="Layer_1" data-name="Layer 1"><path class="cls-2" d="M15.5,16.17a7.23,7.23,0,0,0-1.25-1,1.22,1.22,0,0,0-1.45.16,9.07,9.07,0,0,0-.72.67.88.88,0,0,1-.87.24,2.48,2.48,0,0,1-1.06-.59,9.86,9.86,0,0,1-1.7-1.89,3.21,3.21,0,0,1-.6-1.23.93.93,0,0,1,.37-1A6.61,6.61,0,0,0,9,10.94a1.2,1.2,0,0,0,.32-1.4,7.24,7.24,0,0,0-.77-1.39A3.69,3.69,0,0,0,8,7.47a.81.81,0,0,0-1.16-.06c-.27.22-.54.44-.8.67a3.89,3.89,0,0,0-.46.53,4,4,0,0,0-.67,3,6.49,6.49,0,0,0,.82,2.29,13.87,13.87,0,0,0,1.9,2.6,11.31,11.31,0,0,0,2.52,2.16,5.89,5.89,0,0,0,1.89.77,3.69,3.69,0,0,1,.46.08h.74s0,0,0,0A3.88,3.88,0,0,0,14.76,19,6.48,6.48,0,0,0,16,18a.81.81,0,0,0,.1-1.18A3.41,3.41,0,0,0,15.5,16.17Z"/><path class="cls-2" d="M18.3,8.72a7.06,7.06,0,0,0-2.78-2.8,6.92,6.92,0,0,0-1.67-.66A7.11,7.11,0,0,0,8.57,6l.71.83a6.08,6.08,0,0,1,1.15-.48c.49.16,1.09.45.82.91a1.94,1.94,0,0,0-.51,1.25c-.05.79.35,1.54,1.26,1.46l.22,0c.06.05.29-.42.41-.36,1.43.46,1.71.38,1.66-1.11.16-.33.4-.26.58-.24l.11,0c.18.06.23,0,.22-.17,0-.42.34-.53.47-.82a6,6,0,0,1,2.21,3.17c-.42-.14-1.37-.59-1.48-.16a2.39,2.39,0,0,1-2.42,2c-1.09.06-2.11-.28-2.11.12,0,.76,1.4,1.06,1.79,1.68s1.8-.83,2-.9a1.45,1.45,0,0,1,.85,0,1.38,1.38,0,0,1,.76.53,1.28,1.28,0,0,1,.12.88,1.09,1.09,0,0,1-.07.3,1.14,1.14,0,0,1-.1.19l0,.06a1.26,1.26,0,0,1-.32.53h0l.71.81c.11-.13.22-.26.32-.4l.11-.16a7,7,0,0,0,1-2.73,4.44,4.44,0,0,0,.07-.49c0-.21,0-.41,0-.61A6.9,6.9,0,0,0,18.3,8.72Z"/></g></svg>