<svg xmlns="http://www.w3.org/2000/svg" viewBox="0 0 24 24"><defs><style>.cls-1{fill:#93d1bc;}.cls-2{fill:#fff;}</style></defs><g id="Layer_2" data-name="Layer 2"><rect class="cls-1" x="0.15" y="0.15" width="23.7" height="23.7" rx="4"/></g><g id="Layer_1" data-name="Layer 1"><path class="cls-2" d="M12,5.18H12l0,0L17,7.07a.2.2,0,0,1,.15.23v4.59A10.35,10.35,0,0,1,17,13.56,5.62,5.62,0,0,1,15,17a14.18,14.18,0,0,1-2.94,1.77.13.13,0,0,1-.12,0,15.73,15.73,0,0,1-2.58-1.49,5.82,5.82,0,0,1-1.86-2.2,6.66,6.66,0,0,1-.61-2.84c0-1.68,0-3.35,0-5A.13.13,0,0,1,7,7.09l3.63-1.38ZM10.3,14.53a.14.14,0,0,0,.13,0l1.47-.73a.2.2,0,0,1,.21,0l1.47.74s.06.05.1,0a.24.24,0,0,0,0-.09l-.56-1.68a.16.16,0,0,1,.05-.2l1.3-1.3a.39.39,0,0,1,.11-.06l0,0H12.68c-.08,0-.12,0-.15-.1-.15-.48-.32-1-.48-1.44,0,0,0-.09-.06-.12-.18.52-.35,1-.52,1.56,0,.08-.06.11-.15.1H9.58s-.08,0-.11,0l1.39,1.39s.08.06.06.13Z"/></g></svg>