<svg xmlns="http://www.w3.org/2000/svg" viewBox="0 0 24 24"><defs><style>.cls-1{fill:#93d1bc;}.cls-2{fill:#fff;}</style></defs><g id="Layer_2" data-name="Layer 2"><rect class="cls-1" x="0.15" y="0.15" width="23.7" height="23.7" rx="4"/></g><g id="Layer_1" data-name="Layer 1"><path class="cls-2" d="M8.11,18.83c-2.25.16-1.57-2.59-1.67-4V11.93c-.08-.5.26-1.25-.33-1.46a3.05,3.05,0,0,1-.88-4.06C7.4,3.56,5.59,7.58,6.63,8c1.44,1,1.26.59,2.64-.16.1-.72,0-1.58,0-2.34,0-.08,0-.09.09,0a3.08,3.08,0,0,1,.84,4.4c-1,1-1,.6-.93,2.13,0,2.11,0,1,0,3.13C9.2,16.36,9.85,18.44,8.11,18.83ZM8,18.17c.65-.13.41-1.22-.24-1S7.28,18.39,8,18.17Z"/><path class="cls-2" d="M17.87,9.24h-.71A.31.31,0,0,1,16.79,9l-.09-.24c-.16-.44-.33-.88-.48-1.31-.06-.14-.11-.28-.16-.41a1.42,1.42,0,0,0-.22-.37h0l-.1-.11a1.64,1.64,0,0,0-.26-.2,1.54,1.54,0,0,0-.68-.26s-1.24-.14-3.64-.16h0a9,9,0,0,1,.42,1.45h3a.24.24,0,0,1,.27.2v0h0c.25.8.51,1.6.79,2.39.05.16,0,.17-.14.17H11a7.76,7.76,0,0,1-.77,1v5.27h5.14c.08,0,.13,0,.15,0a.19.19,0,0,1,0,.16v0a2.71,2.71,0,0,0,0,.29.86.86,0,0,0,0,.16,1.35,1.35,0,0,0,.06.34,1.33,1.33,0,0,0,.29.47l0,0,0,0a1.74,1.74,0,0,0,.26.19l.05,0h0a1.19,1.19,0,0,0,.54.12h.08A1.2,1.2,0,0,0,18,17.34h0s0,0,0-.06a1.48,1.48,0,0,0,0-.21c0-1.36,0-2.73,0-4.1,0-.09,0-.18,0-.28a5.94,5.94,0,0,0-.21-1c0-.12-.09-.24-.14-.36a.3.3,0,0,1,0-.13l0-.07h.29a1,1,0,0,0,.79-.41,1,1,0,0,0,.14-.39.77.77,0,0,0,0-.26A1,1,0,0,0,17.87,9.24Zm-1.38,4.41a.94.94,0,0,1-.56.26H15.8a.92.92,0,0,1-.89-.93.89.89,0,0,1,.5-.81.81.81,0,0,1,.46-.11.92.92,0,0,1,.91.93A1,1,0,0,1,16.49,13.65Z"/><path class="cls-2" d="M10.82,5.17l0,.07h0Z"/></g></svg>