<svg xmlns="http://www.w3.org/2000/svg" viewBox="0 0 24 24"><defs><style>.cls-1{fill:#93d1bc;}.cls-2{fill:#fff;}</style></defs><g id="Layer_2" data-name="Layer 2"><rect class="cls-1" x="0.22" y="0.15" width="23.7" height="23.7" rx="4"/></g><g id="Layer_1" data-name="Layer 1"><path class="cls-2" d="M5.11,12a6.83,6.83,0,0,1,6.81-6.83,5.25,5.25,0,0,0-.56,0l-.52.06a7,7,0,0,0-1.18.29A7.75,7.75,0,0,0,8.77,6,6.65,6.65,0,0,0,8,6.38a6.77,6.77,0,0,0-1.11,1,5.45,5.45,0,0,0-.57.7,6.59,6.59,0,0,0-.7,1.2,6.88,6.88,0,0,0-.37,1.08,8.54,8.54,0,0,0-.18,1q0,.31,0,.63c0,.14,0,.28,0,.42s0,.36,0,.54a7.32,7.32,0,0,0,.15.79,6.74,6.74,0,0,0,.36,1,8.21,8.21,0,0,0,.46.88A7.43,7.43,0,0,0,7,16.72a5.33,5.33,0,0,0,.49.46,6.74,6.74,0,0,0,.75.57,7.64,7.64,0,0,0,1.1.57,6,6,0,0,0,1,.33,6.8,6.8,0,0,0,1.1.17l.44,0A6.83,6.83,0,0,1,5.11,12Z"/><path class="cls-2" d="M15.56,17.77a5.51,5.51,0,0,1-.67.38,5.91,5.91,0,0,1-1.11.42,6,6,0,0,1-.94.2,3.17,3.17,0,0,1-.53.05l-.43,0h.06a6.82,6.82,0,0,0,3.69-1.08S15.59,17.76,15.56,17.77Z"/><path class="cls-2" d="M12.68,5.23a5.73,5.73,0,0,1,.92.17,6.34,6.34,0,0,1,.74.23c.25.1.5.21.73.33a6.5,6.5,0,0,1,.81.5,8.63,8.63,0,0,1,.73.6,7.49,7.49,0,0,1,.75.84,7.05,7.05,0,0,1,.59.94A7.26,7.26,0,0,1,18.44,10a7.51,7.51,0,0,1,.21.94c0,.24.06.47.07.71a5.8,5.8,0,0,1,0,.59,5.83,5.83,0,0,1-.06.72,8.79,8.79,0,0,1-.19.89,7.62,7.62,0,0,1-.33.91,7.82,7.82,0,0,1-.43.81.06.06,0,0,0,0,.07A6.71,6.71,0,0,0,18.77,12a6.83,6.83,0,0,0-6.83-6.83h.14C12.28,5.19,12.48,5.21,12.68,5.23Z"/><path class="cls-2" d="M17.7,15.67a.06.06,0,0,1,0-.07,7.82,7.82,0,0,0,.43-.81,7.62,7.62,0,0,0,.33-.91,8.79,8.79,0,0,0,.19-.89,5.83,5.83,0,0,0,.06-.72,5.8,5.8,0,0,0,0-.59c0-.24,0-.47-.07-.71a7.51,7.51,0,0,0-.21-.94A7.26,7.26,0,0,0,18,8.84a7.05,7.05,0,0,0-.59-.94,7.49,7.49,0,0,0-.75-.84,8.63,8.63,0,0,0-.73-.6,6.5,6.5,0,0,0-.81-.5c-.23-.12-.48-.23-.73-.33a6.34,6.34,0,0,0-.74-.23,5.73,5.73,0,0,0-.92-.17c-.2,0-.4,0-.6,0h-.16a6.83,6.83,0,0,0-.07,13.66h0l.43,0a3.17,3.17,0,0,0,.53-.05,6,6,0,0,0,.94-.2,5.91,5.91,0,0,0,1.11-.42,5.51,5.51,0,0,0,.67-.38s0,0,.07,0A6.88,6.88,0,0,0,17.7,15.67ZM13.28,14c0,.43,0,.85,0,1.28a1.59,1.59,0,0,1-.09.61,1.39,1.39,0,0,1-.9.82,1.42,1.42,0,0,1-.42.06,1.34,1.34,0,0,1-.76-.26,1.32,1.32,0,0,1-.5-.66,1.37,1.37,0,0,1-.08-.35c0-.6,0-1.21,0-1.69,0-.69,0-1.26,0-1.83a1.27,1.27,0,0,1,.3-.83,1.35,1.35,0,0,1,1.63-.41,1.28,1.28,0,0,1,.43.3,1.3,1.3,0,0,1,.39.89C13.29,12.66,13.28,13.35,13.28,14ZM11.91,9.92a1.47,1.47,0,1,1,1.46-1.44A1.46,1.46,0,0,1,11.91,9.92Z"/></g></svg>