<svg xmlns="http://www.w3.org/2000/svg" viewBox="0 0 24 24"><defs><style>.cls-1{fill:#93d1bc;}.cls-2{fill:#fff;}</style></defs><g id="Layer_2" data-name="Layer 2"><rect class="cls-1" x="0.15" y="0.15" width="23.7" height="23.7" rx="4"/></g><g id="Layer_1" data-name="Layer 1"><path class="cls-2" d="M19.32,5.85A1.42,1.42,0,0,0,19,5.54a2.52,2.52,0,0,0-1.34-.49,4,4,0,0,0-.69,0,4.24,4.24,0,0,0-.93.22h0c-.13,0-1.61.7-3.3,1.46l-1-.32-1.07-.33-.5-.15h0a4,4,0,0,0-1.69-.31H8.36a4.41,4.41,0,0,0-.71.29.4.4,0,0,0-.13.67.88.88,0,0,0,.24.19l1.39.85.64.44-2.22,1A.36.36,0,0,1,7.16,9C6.79,8.74,6.4,8.46,6,8.18A1.08,1.08,0,0,0,5.73,8a1.06,1.06,0,0,0-.45-.07h0a.92.92,0,0,0-.57.28.52.52,0,0,0-.11.19v0a.47.47,0,0,0,0,.31.14.14,0,0,0,0,.06h0v0c.17.33.75,1.65,1,2.32a1,1,0,0,0,.58.54,2.69,2.69,0,0,0,1.38.07,39.06,39.06,0,0,0,4.08-1.38v.08l-.51,2.7c-.06.37-.14.74-.2,1.12s.21.63.52.53a2.13,2.13,0,0,0,.88-.46,3.1,3.1,0,0,0,.64-1c.32-.7.66-1.41,1-2.11,0,0,0,0,0-.06l0-.1c.34-.72.68-1.44,1-2.17a.43.43,0,0,1,.22-.22c1-.48,2.05-1,3-1.54a4,4,0,0,0,.93-.66A.48.48,0,0,0,19.32,5.85Z"/><rect class="cls-2" x="4.26" y="17.28" width="15.49" height="1.69"/></g></svg>