<svg xmlns="http://www.w3.org/2000/svg" viewBox="0 0 24 24"><defs><style>.cls-1{fill:#93d1bc;}.cls-2{fill:#fff;}</style></defs><g id="Layer_2" data-name="Layer 2"><rect class="cls-1" x="0.15" y="0.15" width="23.7" height="23.7" rx="4"/></g><g id="Layer_1" data-name="Layer 1"><path class="cls-2" d="M18.47,18.08a.55.55,0,0,0-.24-.32.57.57,0,0,0-.25-.08s-.05,0-.05-.06v-7a.33.33,0,0,0-.11-.26.53.53,0,0,0-.17-.08l-.6-.26-.52-.22L16,9.62l-.4-.17-.41-.17-.53-.23-.51-.22-.38-.16a.27.27,0,0,0-.33.15.35.35,0,0,0,0,.14v8.65c0,.06,0,.06-.07.06h-.44s-.05,0-.05-.05V5.75a.46.46,0,0,0-.15-.37.42.42,0,0,0-.37-.09.83.83,0,0,0-.22.08l-.39.15-.46.17-.45.17-.51.2-.39.15-.44.16L9,6.55l-.44.17-.45.17L7.74,7l-.44.17-.4.15-.44.16a.84.84,0,0,0-.21.11.37.37,0,0,0-.15.31.15.15,0,0,0,0,.07v9.56c0,.1,0,.1-.1.1H5.54A.56.56,0,0,0,5,18a.38.38,0,0,0-.07.25v.13a.1.1,0,0,0,0,.09s0,.1.07.12h0s0,0,0,0h0a.34.34,0,0,1,.06.06.34.34,0,0,0-.06-.06.11.11,0,0,0,.08.08h0s0,0,0,0h0s0,0,.07.05.06,0,.08,0h12.7s0,0,0,0a.53.53,0,0,0,.37-.34s0,0,0-.05,0,0,0,0v-.28S18.47,18.09,18.47,18.08Zm-10.68-9A.38.38,0,0,1,8,8.71a.42.42,0,0,1,.57.19.41.41,0,0,1,0,.19v.83a.43.43,0,0,1-.47.43A.44.44,0,0,1,7.79,10V9.5h0C7.79,9.36,7.78,9.22,7.79,9.08Zm0,3.84v-.45a.42.42,0,1,1,.84,0c0,.29,0,.58,0,.87a.42.42,0,0,1-.84,0C7.78,13.21,7.79,13.05,7.79,12.92Zm.84,3.78a.43.43,0,0,1-.49.41.44.44,0,0,1-.35-.37v-.47h0v-.42a.43.43,0,0,1,.45-.43.44.44,0,0,1,.39.41Q8.65,16.27,8.63,16.7ZM10.33,9a.42.42,0,0,1,.81-.08.51.51,0,0,1,0,.17v.81a.43.43,0,0,1-.26.41.41.41,0,0,1-.47-.1.44.44,0,0,1-.12-.3V9.47C10.33,9.34,10.31,9.18,10.33,9Zm0,3.38a.43.43,0,0,1,.28-.33.42.42,0,0,1,.53.26.45.45,0,0,1,0,.16v.81a.43.43,0,0,1-.26.41.41.41,0,0,1-.47-.1.44.44,0,0,1-.12-.3h0v-.44C10.33,12.72,10.31,12.56,10.33,12.39Zm.84,4.28a.43.43,0,0,1-.26.41.41.41,0,0,1-.47-.1.42.42,0,0,1-.12-.3v-.45c0-.13,0-.29,0-.45a.43.43,0,0,1,.28-.34.43.43,0,0,1,.53.26.45.45,0,0,1,0,.16Zm3.94,0a.4.4,0,0,1-.23.36.41.41,0,0,1-.54-.13.38.38,0,0,1-.08-.23c0-.29,0-.58,0-.87a.42.42,0,0,1,.54-.39.43.43,0,0,1,.3.41h0v.41h0Zm0-3.38a.43.43,0,0,1-.77.23.38.38,0,0,1-.08-.23c0-.29,0-.58,0-.87a.42.42,0,0,1,.54-.39.43.43,0,0,1,.3.41h0v.41h0Zm2,3.36a.42.42,0,0,1-.84.08v-.5h0v-.42a.39.39,0,0,1,.23-.37.42.42,0,0,1,.57.19.41.41,0,0,1,0,.19C17.08,16.13,17.09,16.4,17.08,16.68Zm0-3.36a.42.42,0,0,1-.49.41.44.44,0,0,1-.35-.36c0-.16,0-.32,0-.45v-.45a.42.42,0,1,1,.84,0Q17.1,12.89,17.08,13.32Z"/></g></svg>