<svg xmlns="http://www.w3.org/2000/svg" viewBox="0 0 24 24"><defs><style>.cls-1{fill:#93d1bc;}.cls-2{fill:#fff;}</style></defs><g id="Layer_2" data-name="Layer 2"><rect class="cls-1" x="0.15" y="0.15" width="23.7" height="23.7" rx="4"/></g><g id="Layer_1" data-name="Layer 1"><path class="cls-2" d="M14.21,19.17a4.51,4.51,0,0,0-.53-.1,6.85,6.85,0,0,1-2.21-.89,13.52,13.52,0,0,1-2.93-2.51,16.12,16.12,0,0,1-2.21-3,7.76,7.76,0,0,1-1-2.67,4.65,4.65,0,0,1,.78-3.49,3.47,3.47,0,0,1,.53-.61c.31-.27.62-.54.93-.79A1,1,0,0,1,9,5.15a3.61,3.61,0,0,1,.65.8,8.23,8.23,0,0,1,.91,1.61,1.42,1.42,0,0,1-.38,1.63,10.58,10.58,0,0,1-.89.74,1.05,1.05,0,0,0-.43,1.17,3.72,3.72,0,0,0,.69,1.43,11.58,11.58,0,0,0,2,2.21,2.83,2.83,0,0,0,1.22.68,1,1,0,0,0,1-.28,10.21,10.21,0,0,1,.84-.78,1.42,1.42,0,0,1,1.69-.18,7.76,7.76,0,0,1,1.46,1.1,4.27,4.27,0,0,1,.71.76,1,1,0,0,1-.12,1.38,7.44,7.44,0,0,1-1.45,1.17,4.28,4.28,0,0,1-1.74.55s0,0-.05,0Z"/></g></svg>