<svg xmlns="http://www.w3.org/2000/svg" viewBox="0 0 24 24"><defs><style>.cls-1{fill:#93d1bc;}.cls-2{fill:#fff;}</style></defs><g id="Layer_2" data-name="Layer 2"><rect class="cls-1" x="0.15" y="0.15" width="23.7" height="23.7" rx="4"/></g><g id="Layer_1" data-name="Layer 1"><path class="cls-2" d="M19.06,8.88a.89.89,0,0,0-1-1H5.94a.88.88,0,0,0-1,1v6.28a.87.87,0,0,0,1,1h12.2a.87.87,0,0,0,.95-1ZM7.59,15.11c-.17,0-.16-.09-.18-.19A1.5,1.5,0,0,0,6.3,13.68c-.36-.11-.36-.11-.36-.5V10.57c0-.14,0-.2.18-.22A1.48,1.48,0,0,0,7.4,9.12c0-.18.09-.24.29-.23h2.94a3.41,3.41,0,0,0,0,6.22Zm10.47-1.66c0,.13,0,.17-.17.19a1.49,1.49,0,0,0-1.29,1.25c0,.19-.11.22-.28.22H13.38a3.43,3.43,0,0,0,0-6.22h2.7a1,1,0,0,1,.43,0c.11.06.07.25.11.37a1.5,1.5,0,0,0,1.25,1.07c.14,0,.19.07.19.21C18.06,11.52,18.06,12.49,18.06,13.45Z"/></g></svg>