<svg xmlns="http://www.w3.org/2000/svg" viewBox="0 0 24 24"><defs><style>.cls-1{fill:#93d1bc;}.cls-2{fill:#fff;}</style></defs><g id="Layer_2" data-name="Layer 2"><rect class="cls-1" x="0.15" y="0.15" width="23.7" height="23.7" rx="4"/></g><g id="Layer_1" data-name="Layer 1"><path class="cls-2" d="M17.45,8.07A1.92,1.92,0,0,0,17.16,7l0,0,0,0h0l0,0h0L17,6.79h0l0,0-1-1h0l-1-1h0l-.12-.12a3.48,3.48,0,0,0-.71-.42,1.9,1.9,0,0,0-.44-.1H7.58c-.28,0-1,.17-1,1.39V18.87a1.12,1.12,0,0,0,.94,1.06h8.9c.82,0,1.06-.81,1.06-1.3Zm-1.29,3.37v1c0,.07,0,.07-.07.07H14.14c-.05,0-.06,0-.06-.06V10.57c0-.06,0-.06.06-.06h1.11a.92.92,0,0,1,.48.14.87.87,0,0,1,.32.34A.93.93,0,0,1,16.16,11.44Zm-5.27-.93h2.25s0,0,0,.05v2a0,0,0,0,1,0,0H10.85a0,0,0,0,1,0,0V10.59C10.81,10.51,10.81,10.51,10.89,10.51Zm-3,1a.85.85,0,0,1,.07-.39.87.87,0,0,1,.49-.49.84.84,0,0,1,.35-.07h1.1c.06,0,.06,0,.06.06v1.9h0c0,.07,0,.07-.06.07H7.91c-.06,0-.07,0-.07-.07C7.84,12.14,7.84,11.8,7.85,11.46Zm0,2s0,0,.05,0h8.21s.05,0,.05,0v2.36a0,0,0,0,1,0,0H7.88s0,0,0,0V13.54A.08.08,0,0,1,7.85,13.5ZM9.9,18.69H8.77a.93.93,0,0,1-.4-.09.77.77,0,0,1-.29-.22A.88.88,0,0,1,7.87,18a.71.71,0,0,1,0-.2c0-.31,0-.61,0-.91v0s0-.05,0-.05h2c.06,0,.07,0,.07.07v1.75C10,18.68,10,18.69,9.9,18.69Zm3.26,0H10.82a0,0,0,0,1-.05-.05V16.85a0,0,0,0,1,.05-.05h2.36s.05,0,.05.06v1.75A.08.08,0,0,1,13.16,18.69Zm3-1a1,1,0,0,1-.07.38.86.86,0,0,1-.23.33.91.91,0,0,1-.4.21.76.76,0,0,1-.21,0H14.11c-.06,0-.06,0-.06-.07V16.83l0,0h2c.07,0,.08,0,.08.08Z"/></g></svg>