<svg xmlns="http://www.w3.org/2000/svg" viewBox="0 0 24 24"><defs><style>.cls-1{fill:#93d1bc;}.cls-2{fill:#fff;}</style></defs><g id="Layer_2" data-name="Layer 2"><rect class="cls-1" x="0.15" y="0.15" width="23.7" height="23.7" rx="4"/></g><g id="Layer_1" data-name="Layer 1"><path class="cls-2" d="M12,18.27A6.27,6.27,0,1,1,18.27,12,6.27,6.27,0,0,1,12,18.27Zm-.58-8c0,.57,0,1.14,0,1.7a.54.54,0,0,0,.15.39l1.75,1.75a.48.48,0,0,0,.51.12.55.55,0,0,0,.25-.95c-.47-.49-1-1-1.44-1.45a.26.26,0,0,1-.09-.22v-3a1.27,1.27,0,0,0,0-.2A.57.57,0,0,0,11.92,8a.55.55,0,0,0-.48.56C11.43,9.15,11.43,9.72,11.43,10.29Z"/></g></svg>