<?xml version="1.0" encoding="utf-8"?>
<!-- Generator: Adobe Illustrator 24.3.0, SVG Export Plug-In . SVG Version: 6.00 Build 0)  -->
<svg version="1.1" id="Layer_1" xmlns="http://www.w3.org/2000/svg" xmlns:xlink="http://www.w3.org/1999/xlink" x="0px" y="0px"
	 viewBox="0 0 51 50" style="enable-background:new 0 0 51 50;" xml:space="preserve">
<style type="text/css">
	.st0{fill:#1E9597;}
	.st1{fill:none;}
	.st2{fill:#4DB6B1;}
</style>
<g>
	<path class="st0" d="M5.5,27.47c0-4.69,0-9.37,0-14.06C5.5,8.69,9.18,5,13.9,5c1.56,0,3.12-0.01,4.69,0.01
		c0.32,0,0.47-0.07,0.58-0.4C20.04,1.85,22.6,0,25.47,0c2.92,0,5.47,1.83,6.36,4.6c0.11,0.33,0.25,0.41,0.58,0.4
		C34.05,4.99,35.68,5,37.31,5c4,0.01,7.53,3.1,8.1,7.06c0.06,0.43,0.09,0.86,0.09,1.29c0,9.43,0,18.85,0,28.28
		c0,4.68-3.7,8.36-8.38,8.37c-7.74,0-15.48,0-23.23,0c-4.68,0-8.38-3.69-8.38-8.37C5.5,36.91,5.5,32.19,5.5,27.47z M23.83,15.83
		c-0.04-0.5-0.2-0.94-0.6-1.27c-0.75-0.62-1.75-0.49-2.43,0.33c-1.31,1.57-2.63,3.14-3.92,4.72c-0.26,0.32-0.4,0.31-0.64,0
		c-0.36-0.46-0.76-0.9-1.17-1.33c-0.65-0.68-1.65-0.73-2.34-0.13c-0.68,0.6-0.75,1.62-0.13,2.33c0.9,1.03,1.81,2.06,2.74,3.07
		c0.78,0.86,1.86,0.83,2.61-0.07c1.82-2.16,3.62-4.34,5.43-6.51C23.66,16.64,23.8,16.26,23.83,15.83z M23.83,30.83
		c-0.04-0.47-0.19-0.9-0.56-1.23c-0.74-0.66-1.77-0.54-2.47,0.29c-1.32,1.58-2.65,3.17-3.95,4.76c-0.22,0.27-0.35,0.29-0.57,0
		c-0.37-0.46-0.77-0.89-1.17-1.33c-0.66-0.72-1.67-0.79-2.37-0.17c-0.7,0.61-0.75,1.63-0.1,2.37c0.89,1.02,1.79,2.03,2.7,3.03
		c0.79,0.86,1.86,0.83,2.61-0.06c1.82-2.16,3.62-4.34,5.43-6.51C23.65,31.64,23.8,31.27,23.83,30.83z M32.11,21.67
		c1.61,0,3.23,0,4.84,0c1.09,0,1.87-0.7,1.87-1.67c0-0.96-0.78-1.67-1.87-1.67c-3.19,0-6.39,0-9.58,0c-1.09,0-1.87,0.7-1.87,1.66
		c0,0.96,0.78,1.66,1.87,1.67C28.95,21.67,30.53,21.67,32.11,21.67z M32.16,36.67c1.65,0,3.3,0.01,4.95,0
		c0.97-0.01,1.72-0.75,1.72-1.66c0.01-0.9-0.74-1.66-1.71-1.67c-3.3-0.01-6.6-0.01-9.89,0c-0.55,0-1.02,0.21-1.35,0.65
		c-0.4,0.52-0.49,1.1-0.19,1.7c0.32,0.66,0.87,0.97,1.59,0.97C28.9,36.67,30.53,36.67,32.16,36.67z"/>
</g>
</svg>
