<?xml version="1.0" encoding="utf-8"?>
<!-- Generator: Adobe Illustrator 24.3.0, SVG Export Plug-In . SVG Version: 6.00 Build 0)  -->
<svg version="1.1" id="Layer_1" xmlns="http://www.w3.org/2000/svg" xmlns:xlink="http://www.w3.org/1999/xlink" x="0px" y="0px"
	 viewBox="0 0 51 50" style="enable-background:new 0 0 51 50;" xml:space="preserve">
<style type="text/css">
	.st0{fill:#4DB6B1;}
</style>
<g>
	<path class="st0" d="M51,12.1c0-3.4-2.5-5.8-5.8-5.8c-2.2,0-4.3,0-6.5,0c-1.3,0-2.4,0.3-3.4,1.1c-0.8,0.6-1.6,1.1-2.5,1.7
		c-0.3,0.2-0.5,0.3-0.8,0c-0.6-0.5-1.2-0.9-1.8-1.4c-1.1-0.9-2.5-1.3-3.9-1.3c-6.8,0-13.6,0-20.3,0c-3.6,0-6,2.4-6,6
		c0,4.2,0,8.5,0,12.7c0,4.3,0,8.6,0,12.9c0,3.4,2.5,5.9,5.8,5.9c6.9,0,13.7,0,20.6,0c1.4,0,2.6-0.4,3.6-1.2c0.6-0.5,1.3-1,2-1.5
		c0.2-0.2,0.4-0.2,0.6,0c0.9,0.6,1.8,1.2,2.7,1.8c1,0.7,2.1,1,3.3,1c2.2,0,4.3,0,6.5,0c3.4,0,5.8-2.5,5.8-5.9
		C51,29.2,51,20.7,51,12.1z M22.8,22.6c-1.4,1.4-2.7,2.7-4.1,4.1c-0.2,0.2-0.2,0.4-0.1,0.6c0.6,1.8,1.2,3.5,1.8,5.3
		c0,0.1,0.1,0.2,0,0.3c-0.1,0-0.2,0-0.3-0.1c-1.6-0.8-3.1-1.5-4.7-2.3c-0.2-0.1-0.4-0.1-0.6,0c-1.5,0.8-3.1,1.6-4.6,2.3
		c-0.1,0.1-0.2,0.2-0.4,0.1c0.6-1.9,1.3-3.9,1.9-5.8c0.1-0.2-0.1-0.3-0.2-0.4c-1.5-1.5-2.9-2.9-4.4-4.4c0.1-0.1,0.2-0.1,0.4-0.1
		c1.8,0,3.7,0,5.5,0c0.3,0,0.4-0.1,0.5-0.3c0.5-1.6,1.1-3.3,1.6-4.9c0.2,0.1,0.2,0.3,0.2,0.4c0.5,1.5,1,3,1.5,4.6
		c0.1,0.3,0.2,0.3,0.5,0.3c1.8,0,3.6,0,5.4,0c0.1,0,0.3,0,0.4,0c0,0,0.1,0.1,0.1,0.1C23,22.5,22.8,22.5,22.8,22.6z M32.3,15.3
		c1,0,1.7,0.8,1.7,1.7c0,0.9-0.8,1.7-1.7,1.7c-0.9,0-1.7-0.8-1.7-1.7C30.6,16,31.4,15.3,32.3,15.3z M32.3,34.7c-1,0-1.7-0.8-1.7-1.7
		c0-0.9,0.8-1.7,1.7-1.7c0.9,0,1.7,0.8,1.7,1.7C34,33.9,33.3,34.7,32.3,34.7z M32.3,26.7c-1,0-1.7-0.8-1.7-1.7
		c0-0.9,0.8-1.7,1.7-1.7c1,0,1.7,0.8,1.7,1.7C34,25.9,33.2,26.7,32.3,26.7z"/>
</g>
</svg>
