<?xml version="1.0" encoding="utf-8"?>
<!-- Generator: Adobe Illustrator 24.3.0, SVG Export Plug-In . SVG Version: 6.00 Build 0)  -->
<svg version="1.1" id="Layer_1" xmlns="http://www.w3.org/2000/svg" xmlns:xlink="http://www.w3.org/1999/xlink" x="0px" y="0px"
	 viewBox="0 0 51 50" style="enable-background:new 0 0 51 50;" xml:space="preserve">
<style type="text/css">
	.st0{fill:#1E9597;}
	.st1{fill:none;}
	.st2{fill:#4DB6B1;}
</style>
<g>
	<g>
		<path class="st0" d="M0,41.13c0-8.43,0-16.86,0-25.29c0.2-0.24,0.17-0.55,0.27-0.82c0.81-2.41,2.9-3.88,5.58-3.9
			c2.09-0.01,4.18-0.01,6.27,0c0.34,0,0.47-0.07,0.45-0.43c-0.03-0.43-0.01-0.86-0.01-1.29c0.01-2.96,2.11-5.15,5.06-5.17
			c5.24-0.03,10.49-0.02,15.73,0c2.4,0.01,4.19,1.4,4.89,3.68c0.27,0.89,0.18,1.81,0.18,2.71c0,0.37,0.07,0.5,0.48,0.5
			c2.06-0.02,4.11,0.02,6.17-0.02c3.69-0.06,5.97,2.92,5.94,5.95c-0.08,7.68-0.03,15.36-0.03,23.04c0,1.72-0.67,3.15-1.95,4.29
			c-1.13,1-2.49,1.39-3.98,1.39c-5.49,0-10.98,0-16.47,0c-7.55,0-15.1,0-22.65,0c-2.72,0-4.85-1.5-5.66-3.93
			C0.18,41.61,0.21,41.32,0,41.13z M25.47,40.87c6.81,0.04,12.44-5.51,12.45-12.38c0.01-6.98-5.61-12.45-12.41-12.47
			C18.69,16,13.07,21.52,13.06,28.4C13.04,35.35,18.63,40.85,25.47,40.87z"/>
	</g>
	<circle class="st0" cx="25.64" cy="28.6" r="8.68"/>
</g>
</svg>
