<?xml version="1.0" encoding="utf-8"?>
<!-- Generator: Adobe Illustrator 24.3.0, SVG Export Plug-In . SVG Version: 6.00 Build 0)  -->
<svg version="1.1" id="Layer_1" xmlns="http://www.w3.org/2000/svg" xmlns:xlink="http://www.w3.org/1999/xlink" x="0px" y="0px"
	 viewBox="0 0 51 50" style="enable-background:new 0 0 51 50;" xml:space="preserve">
<style type="text/css">
	.st0{fill:#1E9597;}
	.st1{fill:none;}
	.st2{fill:#4DB6B1;}
</style>
<g>
	<path class="st0" d="M23.45,0c1.3,0,2.59,0,3.89,0c0.23,0.2,0.52,0.08,0.77,0.11c3.16,0.37,6.18,1.2,8.96,2.74
		c7.84,4.37,12.3,11.01,13.2,19.97c0.32,3.23-0.06,6.39-1.02,9.48c-3.07,9.78-11.8,16.63-21.79,17.38
		c-3.77,0.28-7.44-0.15-10.93-1.59C7.78,44.47,2.55,37.95,0.88,28.6c-0.1-0.56-0.05-1.14-0.27-1.68c0-1.36,0-2.72,0-4.08
		c0.11-0.03,0.09-0.11,0.1-0.19c0.19-2.33,0.68-4.6,1.58-6.75C5.94,7.16,12.43,1.94,21.77,0.27C22.33,0.17,22.91,0.22,23.45,0z
		 M10.66,39.63c0.22,0.07,0.37-0.05,0.52-0.12c6.46-3,12.91-6,19.37-9c0.26-0.12,0.44-0.29,0.56-0.55c3-6.46,6-12.92,9-19.37
		c0.06-0.14,0.25-0.3,0.12-0.43c-0.13-0.14-0.29,0.05-0.43,0.11c-6.46,3-12.91,6-19.37,9c-0.29,0.13-0.45,0.33-0.58,0.6
		c-1.75,3.77-3.5,7.54-5.25,11.31C13.28,33.99,11.97,36.8,10.66,39.63z"/>
	<path class="st0" d="M28.22,24.88c0,1.52-1.21,2.73-2.73,2.73c-1.52,0-2.73-1.21-2.73-2.73c0-1.52,1.21-2.73,2.73-2.73
		C27.02,22.15,28.22,23.36,28.22,24.88z"/>
</g>
</svg>
