<svg xmlns="http://www.w3.org/2000/svg" viewBox="0 0 60 46"><defs><style>.cls-1{fill:#099396;}.cls-2{fill:#ca6702;}</style></defs><g id="Layer_3" data-name="Layer 3"><path class="cls-1" d="M8.45,12.2a2.33,2.33,0,0,1,.81-.51,3,3,0,0,1,1-.17,2.74,2.74,0,0,1,1.08.21,2.9,2.9,0,0,1,.92.66l1.16-1.06a3.67,3.67,0,0,0-1.39-1A4.78,4.78,0,0,0,10.2,10a4.72,4.72,0,0,0-1.71.29,4.05,4.05,0,0,0-1.35.84,3.78,3.78,0,0,0-.9,1.27,4.34,4.34,0,0,0,0,3.22,3.86,3.86,0,0,0,2.23,2.11,4.66,4.66,0,0,0,1.69.3,5.65,5.65,0,0,0,1.67-.26A4.6,4.6,0,0,0,13.3,17V13.88H11.66v2.28a2.75,2.75,0,0,1-.36.15,3,3,0,0,1-1,.18,2.75,2.75,0,0,1-1-.18,2.26,2.26,0,0,1-.8-.52A2.36,2.36,0,0,1,7.93,15a2.7,2.7,0,0,1-.18-1,2.75,2.75,0,0,1,.18-1,2.47,2.47,0,0,1,.52-.79"/><path class="cls-1" d="M16.55,12.2a2.44,2.44,0,0,1,.79-.51,2.91,2.91,0,0,1,1-.17,2.48,2.48,0,0,1,1.06.22,2.65,2.65,0,0,1,.89.69l1.16-1.07a3.55,3.55,0,0,0-1.37-1,5,5,0,0,0-3.5-.06,4.11,4.11,0,0,0-1.34.84,3.89,3.89,0,0,0-.89,1.27,4,4,0,0,0,.88,4.5,3.93,3.93,0,0,0,1.34.83,4.84,4.84,0,0,0,3.51-.06,3.57,3.57,0,0,0,1.37-1l-1.16-1.06a2.53,2.53,0,0,1-.89.69,2.49,2.49,0,0,1-1.06.23,2.7,2.7,0,0,1-1-.18,2.44,2.44,0,0,1-.79-.51A2.34,2.34,0,0,1,16,15a2.71,2.71,0,0,1-.18-1A2.75,2.75,0,0,1,16,13a2.44,2.44,0,0,1,.51-.79"/><path class="cls-1" d="M26.93,16.26a2.57,2.57,0,0,1-1.07.23,2.73,2.73,0,0,1-1-.18,2.44,2.44,0,0,1-.79-.51,2.34,2.34,0,0,1-.51-.79,2.71,2.71,0,0,1-.18-1,2.75,2.75,0,0,1,.18-1,2.23,2.23,0,0,1,1.3-1.3,3,3,0,0,1,1-.17,2.56,2.56,0,0,1,1.07.22,2.71,2.71,0,0,1,.88.69L29,11.36a3.55,3.55,0,0,0-1.37-1,5,5,0,0,0-3.5-.06,4.11,4.11,0,0,0-1.34.84,3.89,3.89,0,0,0-.89,1.27,4,4,0,0,0,.88,4.5,3.93,3.93,0,0,0,1.34.83,4.84,4.84,0,0,0,3.51-.06,3.57,3.57,0,0,0,1.37-1l-1.16-1.06a2.59,2.59,0,0,1-.88.69"/><rect class="cls-1" x="16.72" y="26.31" width="3.85" height="12"/><path class="cls-1" d="M10.07,27.92c-.13,0-1.12-.12-1.15-.12a1.24,1.24,0,0,1,.29-2.44H23.7L25,21.51H9.21v0A5.21,5.21,0,0,0,9.61,32l1,0a1.24,1.24,0,0,1,.07,2.48h-5v3.84h4.48A5.28,5.28,0,0,0,15.5,33a5.22,5.22,0,0,0-1.43-3.6A5.37,5.37,0,0,0,10.07,27.92Z"/><polygon class="cls-2" points="27.39 21.51 26.9 21.51 26.54 22.61 21.36 38.32 25.21 38.32 28.46 28.42 31.74 38.31 35.58 38.31 30.02 21.51 27.39 21.51"/><polygon class="cls-1" points="32.15 21.52 36.89 31.74 36.89 31.74 36.89 38.31 40.74 38.31 40.74 31.74 40.74 31.74 35.99 21.52 32.15 21.52"/><polygon class="cls-1" points="41.29 21.52 39.08 26.27 41.11 30.28 45.15 21.52 41.29 21.52"/><path class="cls-1" d="M54.17,29.43a5.38,5.38,0,0,0-4-1.51c-.13,0-1.11-.11-1.14-.12a1.23,1.23,0,0,1-1-1.19,1.25,1.25,0,0,1,1.25-1.25h5V21.51h-5v0A5.21,5.21,0,0,0,49.71,32l1,0a1.24,1.24,0,0,1,.06,2.48H42.65v3.85h7.66a5.28,5.28,0,0,0,3.86-8.89Z"/><path class="cls-1" d="M29,1.62A21.37,21.37,0,0,1,50,19.33h1.67A23,23,0,0,0,11.18,8.46h2.18A21.27,21.27,0,0,1,29,1.62Z"/><path class="cls-1" d="M29,44.38a21.21,21.21,0,0,1-12.7-4.21H13.71a23,23,0,0,0,30.58,0H41.7A21.23,21.23,0,0,1,29,44.38Z"/></g></svg>