<svg xmlns="http://www.w3.org/2000/svg" viewBox="0 0 60 46"><defs><style>.cls-1{fill:#009496;}.cls-2{fill:#d66227;}</style></defs><g id="Layer_3" data-name="Layer 3"><path class="cls-1" d="M11.54,18.86a3.84,3.84,0,0,1-.7.36,4,4,0,0,1-.81.24,4.43,4.43,0,0,1-.9.09,4,4,0,0,1-1.54-.28,3.45,3.45,0,0,1-1.18-.79,3.38,3.38,0,0,1-.76-1.18,3.92,3.92,0,0,1-.27-1.47,3.85,3.85,0,0,1,.28-1.44,3.67,3.67,0,0,1,3.45-2.3,4.61,4.61,0,0,1,.86.07,3.89,3.89,0,0,1,.71.19,3.64,3.64,0,0,1,.63.3,5.19,5.19,0,0,1,.57.42l-.81,1a2.59,2.59,0,0,0-.42-.32,2,2,0,0,0-.45-.24,2.64,2.64,0,0,0-.52-.16,3.06,3.06,0,0,0-.63-.06,2.07,2.07,0,0,0-.92.21,2.2,2.2,0,0,0-.74.55,2.57,2.57,0,0,0-.5.81,2.77,2.77,0,0,0-.18,1,2.9,2.9,0,0,0,.18,1,2.44,2.44,0,0,0,.5.82,2.33,2.33,0,0,0,.77.54,2.53,2.53,0,0,0,1,.2,3,3,0,0,0,1-.15,2.86,2.86,0,0,0,.78-.4V16.5H9.06V15.4h3.07v3a4.74,4.74,0,0,1-.59.43"/><path class="cls-1" d="M19.56,18.8a4,4,0,0,1-.65.41,3.16,3.16,0,0,1-.77.25,4.42,4.42,0,0,1-.92.09,3.57,3.57,0,0,1-1.47-.29,3.7,3.7,0,0,1-1.16-.78,4,4,0,0,1-.77-1.18,4,4,0,0,1-.27-1.47,3.89,3.89,0,0,1,.27-1.45,3.54,3.54,0,0,1,.77-1.19,3.71,3.71,0,0,1,1.17-.81,3.91,3.91,0,0,1,1.51-.29,4.94,4.94,0,0,1,.9.08,4.11,4.11,0,0,1,.75.23,3.46,3.46,0,0,1,.62.36,4.89,4.89,0,0,1,.55.45l-.81.94a4.29,4.29,0,0,0-.92-.65,2.44,2.44,0,0,0-1.1-.25,2.21,2.21,0,0,0-1,.21,2.25,2.25,0,0,0-.75.54,2.4,2.4,0,0,0-.5.81,3,3,0,0,0-.17,1,3.06,3.06,0,0,0,.17,1,2.4,2.4,0,0,0,.5.81,2.31,2.31,0,0,0,.75.56,2.36,2.36,0,0,0,1,.2,2.33,2.33,0,0,0,1.13-.26,4,4,0,0,0,.94-.68l.81.82a4.09,4.09,0,0,1-.58.53"/><path class="cls-1" d="M27,18.8a4,4,0,0,1-.65.41,3.16,3.16,0,0,1-.77.25,4.35,4.35,0,0,1-.92.09,3.57,3.57,0,0,1-1.47-.29,3.47,3.47,0,0,1-1.92-2A3.81,3.81,0,0,1,21,15.83a3.89,3.89,0,0,1,.27-1.45,3.54,3.54,0,0,1,.77-1.19,3.71,3.71,0,0,1,1.17-.81,3.91,3.91,0,0,1,1.51-.29,4.94,4.94,0,0,1,.9.08,4.11,4.11,0,0,1,.75.23,3.55,3.55,0,0,1,.63.36,5.85,5.85,0,0,1,.54.45l-.81.94a4.06,4.06,0,0,0-.92-.65,2.44,2.44,0,0,0-1.1-.25,2.17,2.17,0,0,0-.95.21A2.19,2.19,0,0,0,23,14a2.57,2.57,0,0,0-.5.81,3,3,0,0,0-.17,1,3.06,3.06,0,0,0,.17,1,2.57,2.57,0,0,0,.5.81,2.24,2.24,0,0,0,.76.56,2.48,2.48,0,0,0,2.08-.06,4,4,0,0,0,.94-.68l.81.82a3.61,3.61,0,0,1-.58.53"/><path class="cls-2" d="M5.38,31.7l.83-1a5.62,5.62,0,0,0,4,1.66c1.59,0,2.63-.84,2.63-2v0c0-1.1-.59-1.72-3.06-2.25-2.72-.58-4-1.46-4-3.4v0c0-1.86,1.63-3.22,3.87-3.22a6.17,6.17,0,0,1,4.15,1.45l-.78,1a5.14,5.14,0,0,0-3.4-1.29c-1.54,0-2.51.85-2.51,1.91v0c0,1.11.6,1.74,3.2,2.29s3.84,1.54,3.84,3.34v0c0,2-1.68,3.34-4,3.34A6.89,6.89,0,0,1,5.38,31.7"/><polygon class="cls-2" points="19.81 22.86 15.85 22.86 15.85 21.63 25.12 21.63 25.12 22.86 21.16 22.86 21.16 33.42 19.81 33.42 19.81 22.86"/><polygon class="cls-2" points="41.25 28.75 36.35 21.63 37.96 21.63 41.94 27.52 45.95 21.63 47.5 21.63 42.6 28.74 42.6 33.42 41.25 33.42 41.25 28.75"/><path class="cls-2" d="M48.26,31.7l.83-1a5.62,5.62,0,0,0,4,1.66c1.59,0,2.63-.84,2.63-2v0c0-1.1-.59-1.72-3.07-2.25-2.71-.58-3.95-1.46-3.95-3.4v0c0-1.86,1.63-3.22,3.87-3.22a6.17,6.17,0,0,1,4.15,1.45l-.78,1a5.14,5.14,0,0,0-3.4-1.29c-1.54,0-2.51.85-2.51,1.91v0c0,1.11.6,1.74,3.2,2.29s3.84,1.54,3.84,3.34v0c0,2-1.69,3.34-4,3.34a6.89,6.89,0,0,1-4.82-1.89"/><path class="cls-1" d="M47.92,36A21.13,21.13,0,0,1,15,36.52H13.18A22.55,22.55,0,0,0,49.71,36Z"/><path class="cls-1" d="M53.4,18.66a22.56,22.56,0,0,0-41.11-8H14a21.12,21.12,0,0,1,37.91,8Z"/><polygon class="cls-2" points="32.44 23.04 32.44 23.04 32.11 22.33 31.8 21.63 31.05 19.98 30.3 21.62 24.27 34.84 25.76 34.84 31.05 23.27 36.31 34.84 37.8 34.84 32.44 23.04"/></g></svg>