<svg id="Layer_1" data-name="Layer 1" xmlns="http://www.w3.org/2000/svg" viewBox="0 0 60 46"><defs><style>.cls-1{fill:#49b8b2;}.cls-2{fill:#ca6702;}</style></defs><path class="cls-1" d="M29.56,1.57A21.37,21.37,0,0,1,45.11,8.26l.6-1.62a23,23,0,0,0-34,1.84H13.8A21.36,21.36,0,0,1,29.56,1.57Z"/><path class="cls-1" d="M29.56,44.43A21.3,21.3,0,0,1,19.5,41.92h-3A23,23,0,0,0,51.25,30.63l-1.68,0A21.43,21.43,0,0,1,29.56,44.43Z"/><path class="cls-1" d="M50.78,14.12l-.87,2.19A21.43,21.43,0,0,1,51,22.55h1.57A22.93,22.93,0,0,0,50.78,14.12Z"/><rect class="cls-1" x="7.12" y="9.99" width="4.24" height="19.08"/><polygon class="cls-1" points="25.96 9.99 25.97 21.57 17.64 10.01 13.4 9.99 13.4 29.07 17.63 29.07 17.64 17.33 25.98 29.05 30.19 29.07 30.19 9.99 25.96 9.99"/><polygon class="cls-1" points="35.85 9.99 31.61 9.99 34.38 17.05 38.62 17.05 35.85 9.99"/><path class="cls-1" d="M9.37,34.36a2.42,2.42,0,0,1,.81-.51,2.82,2.82,0,0,1,1-.18,2.71,2.71,0,0,1,2,.88l1.15-1.07a3.76,3.76,0,0,0-1.39-1,4.78,4.78,0,0,0-1.86-.35,4.73,4.73,0,0,0-1.71.3,3.88,3.88,0,0,0-1.35.83,3.81,3.81,0,0,0-.9,1.28,4.34,4.34,0,0,0,0,3.22A3.89,3.89,0,0,0,8.05,39a4.11,4.11,0,0,0,1.34.84,4.67,4.67,0,0,0,1.7.29,5.62,5.62,0,0,0,1.66-.25,4.82,4.82,0,0,0,1.47-.73V36H12.58v2.28a2.75,2.75,0,0,1-.36.15,3.18,3.18,0,0,1-2.05,0,2.26,2.26,0,0,1-.8-.52,2.47,2.47,0,0,1-.52-.79,2.9,2.9,0,0,1,0-2,2.36,2.36,0,0,1,.52-.79"/><path class="cls-1" d="M17.47,34.36a2.44,2.44,0,0,1,.79-.51,2.73,2.73,0,0,1,1-.18,2.57,2.57,0,0,1,1.07.23,2.68,2.68,0,0,1,.88.68l1.16-1.06a3.68,3.68,0,0,0-1.37-1,4.7,4.7,0,0,0-1.83-.35,4.55,4.55,0,0,0-1.67.3,3.86,3.86,0,0,0-2.23,2.11A4,4,0,0,0,16.15,39a4.11,4.11,0,0,0,1.34.84A5,5,0,0,0,21,39.82a3.68,3.68,0,0,0,1.37-1l-1.16-1.07a2.75,2.75,0,0,1-.88.7,2.56,2.56,0,0,1-1.07.22,3,3,0,0,1-1-.17,2.23,2.23,0,0,1-1.3-1.3,2.75,2.75,0,0,1-.18-1,2.71,2.71,0,0,1,.18-1,2.34,2.34,0,0,1,.51-.79"/><path class="cls-1" d="M27.85,38.42a2.53,2.53,0,0,1-1.07.22,3,3,0,0,1-1-.17,2.23,2.23,0,0,1-1.3-1.3,2.75,2.75,0,0,1-.18-1,2.71,2.71,0,0,1,.18-1,2.34,2.34,0,0,1,.51-.79,2.44,2.44,0,0,1,.79-.51,2.73,2.73,0,0,1,1-.18,2.54,2.54,0,0,1,1.07.23,2.68,2.68,0,0,1,.88.68l1.16-1.06a3.68,3.68,0,0,0-1.37-1,4.7,4.7,0,0,0-1.83-.35,4.55,4.55,0,0,0-1.67.3,3.86,3.86,0,0,0-2.23,2.11A4,4,0,0,0,23.67,39a4.11,4.11,0,0,0,1.34.84,5,5,0,0,0,3.51-.06,3.68,3.68,0,0,0,1.37-1l-1.16-1.07a2.75,2.75,0,0,1-.88.7"/><polygon class="cls-2" points="48.92 3.59 41.2 23.64 39.38 18.99 35.14 18.99 39.1 29.09 43.33 29.09 53.15 3.59 48.92 3.59"/><rect class="cls-2" x="48.74" y="24.71" width="4.37" height="4.37"/></svg>