<svg xmlns="http://www.w3.org/2000/svg" viewBox="0 0 60 46"><defs><style>.cls-1{fill:#b08e56;}</style></defs><g id="Layer_2" data-name="Layer 2"><path class="cls-1" d="M58.83,42.38h1l-7-17.52a.68.68,0,0,0,0-.14c0-.06,0-.14-.1-.18H48.47c-.27,0-.27-.07-.4.27-1.18,3-2.4,6-3.58,9a23.5,23.5,0,0,1-2,4.56A6.44,6.44,0,0,1,41.07,40s-.11.1-.18.05c-.14-.33.58-1.17.63-1.67a6,6,0,0,0,0-3.58c-1.11-3.1-5-3.3-7.68-4.17A3.42,3.42,0,0,1,32.32,30c-.41-.9.3-1.63,1.2-1.7a9.57,9.57,0,0,1,5,1.51c.35.16.35.15.58-.14a19.11,19.11,0,0,0,1.27-1.69c.24-.38.45-.78.71-1.14s.16-.44-.09-.6a9.08,9.08,0,0,0-1.79-1,12.22,12.22,0,0,0-7.5-.87,6.26,6.26,0,0,0-3.6,2.42C26.5,29,27,32.67,29.64,34a12.61,12.61,0,0,0,3.49,1.23,12.92,12.92,0,0,1,3.45,1.18c.28.18.14.58.16.86-.27,1.51-2.87,1-3.89.74a11.26,11.26,0,0,1-3.45-1.59c-.5-.45-.72.37-1,.66A18.36,18.36,0,0,1,26.73,39c-.34.28-.35.62,0,.84,2.44,2.17,5.8,2.63,9,2.59,2.47,0,5,.12,7.42-.07,4-.19,4.72-4.05,5.86-7.16.22-.23,1.28-4.55,1.42-3.71l.27.7.63,1.76c.79,2.27,1.51,4.58,2.5,6.78h0l.08.18,0,.06s0,0,0,.08a2.69,2.69,0,0,0,1.08,1.07,2.43,2.43,0,0,0,.65.25,3,3,0,0,0,.72.09l2,0Z"/><path class="cls-1" d="M24.53,21.05c.21,0,.22,0,.21-.23,0-3,0-6,0-8.93,0-.23.22,0,.27.1,1.86,2.78,4.06,5.32,6.06,8,1.09,1.67,3.29.89,4.95,1.12.13-5.7,0-11.43,0-17.13-1.46,0-2.94,0-4.4,0-.23,0-.23,0-.24.22,0,2,0,4,0,6a23.89,23.89,0,0,1,0,2.68c-.22,0-.4-.34-.55-.5-1.23-1.71-2.51-3.38-3.81-5a22.07,22.07,0,0,0-2-2.41,2.33,2.33,0,0,0-2-.93H20.39c-.49,0-.34.49-.36,2.29,0,4.94,0,9.87,0,14.8C21.51,21.16,23,21.07,24.53,21.05Z"/><path class="cls-1" d="M18,15.31a9.07,9.07,0,0,0-2.8-9.67C8.35.21-1.8,6.3.51,15,2.76,23.39,15.41,23.48,18,15.31ZM9.26,8.13A4.41,4.41,0,0,1,13.61,13,4.32,4.32,0,0,1,5,12.56,4.45,4.45,0,0,1,9.26,8.13Z"/><path class="cls-1" d="M38.11,21.08c3.74,0,7.48,0,11.22,0,.2,0,.2,0,.2-.2V17.1c0-.18,0-.19-.18-.17-2.17.07-4.34,0-6.5.06-.13,0-.17,0-.18-.08V14.58c0-.18.07-.29.35-.24,2.09,0,4.17,0,6.25,0,.23,0,.23,0,.23-.25,0-1.12,0-2.23,0-3.36,0-.09,0-.16-.13-.15-.71,0-1.41,0-2.12,0-1.48,0-3,0-4.45,0-.07,0-.11,0-.14-.16V8.23c0-.18.06-.18.32-.18A48.69,48.69,0,0,0,48.26,8c1.28-.47,1.24-2,1.26-3.14,0-.17.15-.82-.12-.8-3.49,0-7,0-10.47,0a6.27,6.27,0,0,0-1,0q0,5.93,0,11.85c0,1.72,0,3.45-.07,5.17C38,21.1,38.05,21.06,38.11,21.08Z"/><path class="cls-1" d="M25.11,24.32c-2.75,0-5.56,0-8.33,0l-.8.17c-3.79,1.16-4.23,5.6-5.56,8.77a8.87,8.87,0,0,1-.87,2.07c-.63-1.57-1.09-3.37-1.7-5-.49-1.38-1-2.77-1.53-4.13a3.13,3.13,0,0,0-3.15-1.88c-.87,0-1.75,0-2.62-.05-.23,0-.24,0-.21.23,1.31,3.87,3,7.6,4.5,11.42.76,1.83,1.45,3.68,2.2,5.52A1,1,0,0,0,8,42.2a7.19,7.19,0,0,0,1.84-.15c1.12-.3,2.5-1.19,3.65-3.75.11-.24.22-.49.32-.76h0c.29-.71.56-1.42.83-2.14,1.51-3.82,2.45-6,2.49-6.05s.18-.34.26-.51a6.32,6.32,0,0,1,1.23-1.55h0l.07-.06a4.41,4.41,0,0,1,2.54-.66s0,0,0,0-.06.27-.13.39c-.89,1.61-.7,3.54-.75,5.32,0,3.21,0,6.41,0,9.62,0,.24,0,.24.24.24H25c.18,0,.18,0,.19-.18V41C25.09,35.44,25.22,29.82,25.11,24.32Z"/></g></svg>