<?xml version="1.0" encoding="utf-8"?>
<!-- Generator: Adobe Illustrator 24.3.0, SVG Export Plug-In . SVG Version: 6.00 Build 0)  -->
<svg version="1.1" id="Layer_1" xmlns="http://www.w3.org/2000/svg" xmlns:xlink="http://www.w3.org/1999/xlink" x="0px" y="0px"
	 viewBox="0 0 51 50" style="enable-background:new 0 0 51 50;" xml:space="preserve">
<style type="text/css">
	.st0{fill:#1E9597;}
	.st1{fill:none;}
	.st2{fill:#4DB6B1;}
</style>
<g>
	<path class="st2" d="M50.47,22.89v-5.65c0-0.03,0-0.06,0-0.1c0-0.05,0-0.1,0-0.16v-2.18h-0.02c0-0.12-0.01-0.23-0.02-0.35
		c-0.22-3.27-2.51-5.99-5.67-6.76c-1.26-0.31-2.56-0.21-3.84-0.2c-0.36,0-0.46-0.1-0.45-0.46c0.02-1.48,0.01-2.96,0.01-4.45
		c0-0.23-0.01-0.47-0.07-0.69c-0.33-1.25-1.44-2.01-2.72-1.87c-1.25,0.14-2.2,1.16-2.22,2.45c-0.03,1.5-0.02,3,0,4.5
		c0.01,0.42-0.13,0.51-0.52,0.51c-6.3-0.01-12.59-0.01-18.89,0c-0.4,0-0.53-0.1-0.52-0.51c0.03-1.5,0.03-3,0-4.5
		C15.51,1.05,14.35-0.04,12.96,0c-1.39,0.04-2.43,1.12-2.44,2.53c-0.01,1.5-0.01,3,0.01,4.5c0.01,0.37-0.1,0.47-0.46,0.45
		C9.42,7.46,8.75,7.47,8.09,7.48c-3.42,0.06-6.22,2.11-7.22,5.26c-0.22,0.68-0.29,1.37-0.32,2.06v0c-0.03,0.68-0.01,1.37-0.03,2.05
		c-0.01,0.16,0,0.28,0.03,0.37v5.51c-0.02,0.09-0.03,0.19-0.03,0.33c0.02,6.35,0.01,12.71,0.02,19.06c0,0.52,0.01,1.06,0.11,1.57
		c0.75,3.81,3.72,6.23,7.67,6.23c11.46,0.01,22.92,0,34.38,0c0.72,0,1.44-0.05,2.14-0.24c3.43-0.92,5.62-3.83,5.63-7.52
		c0.01-6.35,0-12.71,0.01-19.06C50.48,23.03,50.48,22.96,50.47,22.89z M15.59,36.94c0,0.9-0.74,1.64-1.64,1.64H8.96
		c-0.9,0-1.64-0.74-1.64-1.64v-4.98c0-0.9,0.74-1.64,1.64-1.64h4.98c0.9,0,1.64,0.74,1.64,1.64V36.94z M15.59,23.42
		c0,0.9-0.74,1.64-1.64,1.64H8.96c-0.9,0-1.64-0.74-1.64-1.64v-4.98c0-0.9,0.74-1.64,1.64-1.64h4.98c0.9,0,1.64,0.74,1.64,1.64
		V23.42z M29.81,36.94c0,0.9-0.74,1.64-1.64,1.64h-4.98c-0.9,0-1.64-0.74-1.64-1.64v-4.98c0-0.9,0.74-1.64,1.64-1.64h4.98
		c0.9,0,1.64,0.74,1.64,1.64V36.94z M29.81,23.42c0,0.9-0.74,1.64-1.64,1.64h-4.98c-0.9,0-1.64-0.74-1.64-1.64v-4.98
		c0-0.9,0.74-1.64,1.64-1.64h4.98c0.9,0,1.64,0.74,1.64,1.64V23.42z M44.03,23.42c0,0.9-0.74,1.64-1.64,1.64h-4.98
		c-0.9,0-1.64-0.74-1.64-1.64v-4.98c0-0.9,0.74-1.64,1.64-1.64h4.98c0.9,0,1.64,0.74,1.64,1.64V23.42z"/>
</g>
</svg>
