<svg xmlns="http://www.w3.org/2000/svg" viewBox="0 0 24 24"><defs><style>.cls-1{fill:#93d1bc;}.cls-2{fill:#fff;}</style></defs><g id="Layer_2" data-name="Layer 2"><rect class="cls-1" x="0.22" y="0.15" width="23.7" height="23.7" rx="4"/></g><g id="Layer_1" data-name="Layer 1"><path class="cls-2" d="M16.51,15.16s-.05,0-.07,0H10.55s-.05,0-.06,0a.06.06,0,0,0,0,.05,1.57,1.57,0,0,1,.36.59c0,.08,0,.08.13.08h5c.1,0,.1,0,.14-.09a1.41,1.41,0,0,1,.34-.56S16.53,15.19,16.51,15.16Z"/><path class="cls-2" d="M6.63,12.78a.3.3,0,0,0-.24-.08h-2a.25.25,0,0,0-.22.24.24.24,0,0,0,.24.21H6.48A.21.21,0,0,0,6.67,13,.22.22,0,0,0,6.63,12.78Z"/><path class="cls-2" d="M8.22,15.15s0,0-.05,0H7a.38.38,0,1,0,0,.76h.68c.11,0,.12,0,.15-.1a1.71,1.71,0,0,1,.36-.59A0,0,0,0,0,8.22,15.15Z"/><path class="cls-2" d="M6,14.09H4.81a.23.23,0,0,0-.21.14.22.22,0,0,0,.21.3H6a.22.22,0,0,0,.23-.21A.22.22,0,0,0,6,14.09Z"/><path class="cls-2" d="M17.65,15.26a1.09,1.09,0,1,0,1.09,1.08A1.09,1.09,0,0,0,17.65,15.26Z"/><path class="cls-2" d="M9.36,15.21a1.14,1.14,0,1,0,1.12,1.13A1.13,1.13,0,0,0,9.36,15.21Z"/><path class="cls-2" d="M13.16,7.9a.11.11,0,0,1,.07.13c0,.1,0,.2,0,.3s0,.08.08.08h.39c.07,0,.08,0,.08-.08a1.76,1.76,0,0,0,0-.23.22.22,0,0,1,.12-.24.67.67,0,0,0,.32-.64.71.71,0,0,0-1.05-.61.71.71,0,0,0-.36.81A.69.69,0,0,0,13.16,7.9Z"/><path class="cls-2" d="M20.36,15.43a.36.36,0,0,0-.33-.28H18.88s-.05,0-.06,0a0,0,0,0,0,0,.06,1.68,1.68,0,0,1,.35.59.08.08,0,0,0,.08.06H20a.42.42,0,0,0,.16,0A.37.37,0,0,0,20.36,15.43Z"/><path class="cls-2" d="M6.81,11.61a.2.2,0,0,0,.21-.2.21.21,0,0,0-.21-.2H5.57a.17.17,0,0,0-.18.12.2.2,0,0,0,.19.28H6.81Z"/><path class="cls-2" d="M9.08,14.73h0Z"/><path class="cls-2" d="M7.85,12.16v0h0a6.28,6.28,0,0,0-.34.93,2,2,0,0,0-.07.23v0c0,.07,0,.13,0,.19v0l0,.18,0,.06,0,.24s0,.08,0,.12,0,.05,0,.07v.08a.45.45,0,0,0,0,.11v0a.66.66,0,0,1,0,.15v.18h0v.06s0,.07.07.07H8.41a.26.26,0,0,0,.15,0,1.52,1.52,0,0,1,1.4-.09l.23.11a.2.2,0,0,0,.11,0h6.33a.53.53,0,0,0,.3-.07,1.26,1.26,0,0,1,.6-.17,1.48,1.48,0,0,1,.94.22l.11,0h1.13c.07,0,.08,0,.08-.09l0-.54c0-.22-.06-.44-.1-.65a6.32,6.32,0,0,0-.47-1.41,5.88,5.88,0,0,0-1.08-1.62,5.74,5.74,0,0,0-.77-.71,6.46,6.46,0,0,0-.84-.56,6.18,6.18,0,0,0-1.93-.67h-.06a6.36,6.36,0,0,0-2.68.15,5.27,5.27,0,0,0-.82.29h0l-.07,0-.11.05h0l0,0h0a6,6,0,0,0-2.91,2.91Z"/><rect class="cls-2" x="3.63" y="9.73" width="4.6" height="0.49" rx="0.24"/></g></svg>