<svg xmlns="http://www.w3.org/2000/svg" viewBox="0 0 24 24"><defs><style>.cls-1{fill:#93d1bc;}.cls-2{fill:#fff;}</style></defs><g id="Layer_2" data-name="Layer 2"><rect class="cls-1" x="0.22" y="0.15" width="23.7" height="23.7" rx="4"/></g><g id="Layer_1" data-name="Layer 1"><path class="cls-2" d="M20.6,12.28a.49.49,0,0,0,0-.12.56.56,0,0,0-.54-.43H9a.55.55,0,0,0-.54.55V13a.53.53,0,0,0,.54.54H9l.18,1.47.12,1,.12,1.06a1.18,1.18,0,0,0,.13.52.8.8,0,0,0,.73.4h8.54a.77.77,0,0,0,.75-.62c.08-.38.1-.77.15-1.15l.37-2.72a.52.52,0,0,0,.5-.54Z"/><path class="cls-2" d="M12.74,8.66A2.84,2.84,0,0,1,14,9.9h0a4.22,4.22,0,0,1,.18.45l0,0c0,.15.08.35.12.58h0a.35.35,0,0,0,0,.12s0,0,0,0,0,.08.08.08h2c.07,0,.08,0,.08-.08V7.8a1.81,1.81,0,0,0,0-.4,1.85,1.85,0,0,0-3.66.35v.81A.1.1,0,0,0,12.74,8.66Z"/><path class="cls-2" d="M9.07,11.21h4.59c.07,0,.08,0,.08-.08a2.65,2.65,0,0,0-.07-.48,2.34,2.34,0,0,0-1.09-1.48,2.16,2.16,0,0,0-.87-.31c-.06,0-.09,0-.09-.1a3.86,3.86,0,0,0,0-.68,1.57,1.57,0,0,0-1-1.26,1.93,1.93,0,0,0-.86-.1A.27.27,0,0,0,9.51,7c0,.3,0,.59,0,.89a1.56,1.56,0,0,0,.22.73,1.65,1.65,0,0,0,.5.52l-.09.06a2.33,2.33,0,0,0-1.16,2C9,11.2,9,11.21,9.07,11.21Z"/><path class="cls-2" d="M17,11.21h3s.07,0,.07-.07c0-.42,0-.83,0-1.25a.78.78,0,0,0-.8-.79H17c-.06,0-.08,0-.07.08,0,.65,0,1.31,0,2C16.9,11.2,16.93,11.21,17,11.21Z"/><path class="cls-2" d="M8.28,14.26a.31.31,0,0,0-.27-.1H5.63a.27.27,0,0,0-.26.27.28.28,0,0,0,.28.25H8.1a.24.24,0,0,0,.23-.15A.25.25,0,0,0,8.28,14.26Z"/><path class="cls-2" d="M8,15.8H6.58a.25.25,0,0,0-.24.17.27.27,0,0,0,.24.35H8a.27.27,0,0,0,.27-.25A.26.26,0,0,0,8,15.8Z"/><path class="cls-2" d="M7.74,12.89a.24.24,0,1,0,0-.48H6.29a.23.23,0,0,0-.22.14.24.24,0,0,0,.22.34H7.74Z"/><rect class="cls-2" x="3.4" y="17.12" width="5.41" height="0.57" rx="0.29"/><rect class="cls-2" x="4.12" y="10.55" width="4.08" height="0.57" rx="0.29"/></g></svg>