<svg xmlns="http://www.w3.org/2000/svg" viewBox="0 0 24 24"><defs><style>.cls-1{fill:#93d1bc;}.cls-2{fill:#fff;}</style></defs><g id="Layer_2" data-name="Layer 2"><rect class="cls-1" x="0.22" y="0.15" width="23.7" height="23.7" rx="4"/></g><g id="Layer_1" data-name="Layer 1"><path class="cls-2" d="M7.66,17.48a2.16,2.16,0,0,1-1.3-2.06V8.51A3.53,3.53,0,0,1,8.81,5.14,3.46,3.46,0,0,1,10,5h4.09a3.53,3.53,0,0,1,3.51,2.8,3.74,3.74,0,0,1,.08.82v6.83a2.17,2.17,0,0,1-1.31,2.07l.36.33a.7.7,0,1,1-1,1l-1.07-1.07a.31.31,0,0,0-.22-.09H9.6a.27.27,0,0,0-.22.1c-.36.36-.72.73-1.09,1.08a.7.7,0,0,1-1.18-.3.66.66,0,0,1,.17-.68ZM12,7.09H9.83A1.37,1.37,0,0,0,8.5,8.35c0,1,0,2.06,0,3.08A1.37,1.37,0,0,0,9.84,12.7q2.16,0,4.32,0a1.37,1.37,0,0,0,1.34-1.27c0-1,0-2,0-3a1.36,1.36,0,0,0-1.45-1.36Zm3.5,7.73a.7.7,0,0,0-.7-.7.7.7,0,1,0,0,1.4A.71.71,0,0,0,15.51,14.82Zm-6.31.7a.7.7,0,0,0,0-1.4.7.7,0,0,0,0,1.4Z"/></g></svg>