<svg xmlns="http://www.w3.org/2000/svg" viewBox="0 0 24 24"><defs><style>.cls-1{fill:#93d1bc;}.cls-2{fill:#fff;}</style></defs><g id="Layer_2" data-name="Layer 2"><rect class="cls-1" x="0.22" y="0.15" width="23.7" height="23.7" rx="4"/></g><g id="Layer_1" data-name="Layer 1"><path class="cls-2" d="M14,5.05a2.49,2.49,0,0,1,2.48,2.16,2.73,2.73,0,0,1-.26,1.43,18,18,0,0,1-1.79,3.14.48.48,0,0,1-.8,0,15.3,15.3,0,0,1-2-3.61,2.45,2.45,0,0,1,2-3.12Zm0,3.47a1,1,0,1,0-1-1A1,1,0,0,0,14,8.52Z"/><path class="cls-2" d="M18.27,14.78l-3-.79-5.09-1.33c-.1,0-.14-.06-.14-.17q0-1.17,0-2.34c0-.11,0-.15.14-.15h1a.2.2,0,0,1,.21.13,21.89,21.89,0,0,0,1.32,2.16,1.48,1.48,0,0,0,2.52,0,20.28,20.28,0,0,0,1.31-2.13.24.24,0,0,1,.27-.15H17a.47.47,0,0,1,.42.4c.21,1.07.41,2.14.61,3.21l.18,1C18.25,14.67,18.26,14.71,18.27,14.78Z"/><path class="cls-2" d="M9,12.76c0,.86,0,1.72,0,2.58,0,.11,0,.14-.14.14H5.56c-.11,0-.15,0-.14-.14.09-.64.17-1.28.25-1.92l.24-1.94c0-.33.08-.67.13-1A.49.49,0,0,1,6.58,10H8.91c.12,0,.11.06.11.14Z"/><path class="cls-2" d="M14.77,14.89c-.31.48-.63.95-.94,1.42-.57.84-1.13,1.69-1.69,2.54a.21.21,0,0,1-.2.1H10.13c-.1,0-.13,0-.13-.13,0-1.68,0-3.37,0-5.05,0-.12,0-.13.13-.1l4.57,1.19Z"/><path class="cls-2" d="M13.26,18.94l.35-.53,2.1-3.14c.06-.1.11-.11.22-.09l2.44.65a.12.12,0,0,1,.12.12l.45,2.37a.5.5,0,0,1-.52.63H13.26Z"/><path class="cls-2" d="M7.16,16.46H8.9c.1,0,.13,0,.13.12,0,.75,0,1.51,0,2.26,0,.08,0,.11-.11.11H5.58a.48.48,0,0,1-.53-.56c.06-.51.13-1,.19-1.53,0-.1,0-.2,0-.3s0-.1.12-.1Z"/></g></svg>