<svg xmlns="http://www.w3.org/2000/svg" viewBox="0 0 24 24"><defs><style>.cls-1{fill:#93d1bc;}.cls-2{fill:#fff;}</style></defs><g id="Layer_2" data-name="Layer 2"><rect class="cls-1" x="0.22" y="0.15" width="23.7" height="23.7" rx="4"/></g><g id="Layer_1" data-name="Layer 1"><path class="cls-2" d="M18.31,11.56a5.79,5.79,0,0,1,.42,1.54c0,.13,0,.26,0,.39,0,1.27,0,2.53,0,3.79a1.25,1.25,0,0,1-1.14,1.34,1.22,1.22,0,0,1-1.32-1.16,2.46,2.46,0,0,1,0-.47c0-.17-.05-.2-.21-.2H7.87c-.14,0-.17,0-.17.18a2.08,2.08,0,0,1-.07.82,1.24,1.24,0,0,1-1.41.82,1.2,1.2,0,0,1-1-1.2V13.34a3.93,3.93,0,0,1,.37-1.58c.07-.15,0-.2-.13-.2a.93.93,0,1,1-.15-1.85q.38,0,.75,0a.3.3,0,0,0,.36-.24c.22-.61.46-1.22.68-1.83a1.48,1.48,0,0,1,1.23-1,14.19,14.19,0,0,1,1.72-.22c.09,0,.1,0,.11-.13a1,1,0,0,1,1-.89h1.72a1,1,0,0,1,.94.9c0,.09,0,.11.13.12a13.25,13.25,0,0,1,1.89.28,1.3,1.3,0,0,1,1,.84c.25.65.49,1.29.72,1.94a.31.31,0,0,0,.36.26c.23,0,.47,0,.7,0a.93.93,0,1,1,0,1.85ZM12,10.62h4.26c.14,0,.17,0,.12-.16-.26-.8-.53-1.59-.78-2.39a.25.25,0,0,0-.27-.2H8.7a.29.29,0,0,0-.31.23c-.25.79-.51,1.57-.78,2.35-.05.16,0,.17.13.17ZM7.4,14.31a.9.9,0,0,0,.9-.9.92.92,0,1,0-.9.9Zm10.11-.9a.9.9,0,0,0-.91-.91.88.88,0,0,0-.91.89.91.91,0,0,0,1.82,0Z"/></g></svg>