<svg xmlns="http://www.w3.org/2000/svg" viewBox="0 0 24 24"><defs><style>.cls-1{fill:#93d1bc;}.cls-2{fill:#fff;}</style></defs><g id="Layer_2" data-name="Layer 2"><rect class="cls-1" x="0.22" y="0.15" width="23.7" height="23.7" rx="4"/></g><g id="Layer_1" data-name="Layer 1"><path class="cls-2" d="M14,14.73c-1.23,0-2.46,0-3.69,0-.28,0-.34.06-.25.33.25.77.24.78,1.06.78h5.54a1.42,1.42,0,0,1,1.38.86,1.33,1.33,0,0,1-.38,1.58,1.5,1.5,0,0,1-1.66.19A1.36,1.36,0,0,1,15.22,17c0-.26,0-.31-.25-.31h-3.1c-.19,0-.32,0-.25.28a1.37,1.37,0,0,1-.87,1.53A1.49,1.49,0,0,1,9,18a1.31,1.31,0,0,1,.14-1.74.41.41,0,0,0,.1-.53Q7.64,11.21,6.08,6.67c-.09-.27-.2-.39-.51-.37s-.84,0-1.25,0-.54-.18-.55-.46.21-.47.57-.47H6.15a.6.6,0,0,1,.64.46c.24.71.5,1.42.75,2.13a.34.34,0,0,0,.39.27l11.57,0h.25c.45,0,.56.17.41.59-.61,1.81-1.23,3.61-1.83,5.42a.68.68,0,0,1-.74.52c-1.21,0-2.42,0-3.63,0Z"/></g></svg>