<svg xmlns="http://www.w3.org/2000/svg" viewBox="0 0 24 24"><defs><style>.cls-1{fill:#93d1bc;}.cls-2{fill:#fff;}</style></defs><g id="Layer_2" data-name="Layer 2"><rect class="cls-1" x="0.22" y="0.15" width="23.7" height="23.7" rx="4"/></g><g id="Layer_1" data-name="Layer 1"><path class="cls-2" d="M9,5.75a.86.86,0,0,0,.88.36c.14,0,.27,0,.36-.14.18.19.32.18.51,0a.4.4,0,0,0,.29.14h1.75a.76.76,0,0,0,.76.75h1a.76.76,0,0,0,.77-.74c0-.52,0-1,0-1.57a.76.76,0,0,0-.78-.75h-1a.77.77,0,0,0-.75.76H9.47a.31.31,0,0,0-.21.07l-.5.51a.25.25,0,0,0,0,.37A1.47,1.47,0,0,1,9,5.75Z"/><path class="cls-2" d="M19.64,12a1,1,0,0,0-.93-.82H18a.31.31,0,0,1-.37-.26l-.09-.24-.48-1.31C17,9.18,17,9,16.9,8.91a.37.37,0,0,0,0-.11,1.17,1.17,0,0,0-.17-.26h0l-.1-.11-.26-.2A1.54,1.54,0,0,0,15.65,8S14.41,7.83,12,7.81h0C9.6,7.83,8.35,8,8.35,8a1.7,1.7,0,0,0-.6.21,1.53,1.53,0,0,0-.42.34v0h0a1.17,1.17,0,0,0-.17.26.37.37,0,0,0-.05.11c0,.13-.1.27-.16.41l-.48,1.31-.09.24a.31.31,0,0,1-.37.26H5.29a1,1,0,0,0-.93.82.93.93,0,0,0,.15.65A1,1,0,0,0,5.3,13h.28a.64.64,0,0,0,0,.07.3.3,0,0,1,0,.13c0,.12-.1.24-.14.37a5.83,5.83,0,0,0-.21,1,2.85,2.85,0,0,0,0,.29V19a1.25,1.25,0,0,0,0,.21.13.13,0,0,1,0,.06h0a1.2,1.2,0,0,0,1.11.95h.08a1.19,1.19,0,0,0,.54-.12h0L7,20a1.74,1.74,0,0,0,.26-.19l0,0,0,0a1.49,1.49,0,0,0,.29-.47A2,2,0,0,0,7.63,19c0-.05,0-.11,0-.16a2.71,2.71,0,0,0,0-.29v0a.19.19,0,0,1,0-.16s.07,0,.15,0h8.38c.08,0,.13,0,.15,0a.19.19,0,0,1,0,.16v0a2.71,2.71,0,0,0,0,.29c0,.05,0,.11,0,.16a2,2,0,0,0,.06.34,1.49,1.49,0,0,0,.29.47l0,0,0,0A1.74,1.74,0,0,0,17,20l.05,0h0a1.19,1.19,0,0,0,.54.12h.08a1.2,1.2,0,0,0,1.11-.95h0a.13.13,0,0,1,0-.06,1.25,1.25,0,0,0,0-.21V14.86a2.85,2.85,0,0,0,0-.29,5.83,5.83,0,0,0-.21-1c0-.13-.09-.25-.14-.37a.3.3,0,0,1,0-.13.64.64,0,0,0,0-.07h.28a1,1,0,0,0,.79-.41.93.93,0,0,0,.15-.65ZM7.36,15.8H7.23a.94.94,0,0,1-.56-.26,1,1,0,0,1-.29-.66A.92.92,0,0,1,7.29,14a.94.94,0,0,1,1,.92A.92.92,0,0,1,7.36,15.8ZM12,12.05H7.68c-.15,0-.19,0-.14-.18.27-.79.54-1.59.79-2.39h0v0a.25.25,0,0,1,.27-.2h6.78a.25.25,0,0,1,.27.2v0h0c.25.8.52,1.6.79,2.39.05.16,0,.18-.14.18H12Zm5.33,3.49a.92.92,0,0,1-.56.26h-.13a.92.92,0,0,1-.89-.93.94.94,0,0,1,1-.92.92.92,0,0,1,.91.93A.94.94,0,0,1,17.33,15.54Z"/></g></svg>