<svg id="Layer_1" data-name="Layer 1" xmlns="http://www.w3.org/2000/svg" xmlns:xlink="http://www.w3.org/1999/xlink" viewBox="0 0 130 140"><defs><style>.cls-1{fill:none;}.cls-2{clip-path:url(#clip-path);}.cls-3{fill:#1e9597;}.cls-4{fill:#fff;}</style><clipPath id="clip-path"><circle class="cls-1" cx="65.14" cy="70" r="65"/></clipPath></defs><g class="cls-2"><path class="cls-3" d="M77.62,134.08v-.26l-1.44.26Z"/><path class="cls-3" d="M71.46,87.57a1.68,1.68,0,0,0-1,.51c-1.5,1.48-3,3-4.37,4.38l-2.84-2.77,2.34-2.08H55.42v22.33c2.23,0,4.37,0,6.51,0a2.83,2.83,0,0,0,1.5-.55c1.85-1.45,3.65-3,5.32-4.33l3,2.7-2.55,2.14h8.44V87.55C75.53,87.55,73.49,87.52,71.46,87.57Z"/><path class="cls-3" d="M69.49,112.49l-.21.33c.77.73,1.54,1.45,2.15,2L68.85,118c-1.76-1.63-3.52-3.27-5.3-4.89-.29-.27-.64-.63-1-.64-2.38,0-4.76,0-7.19,0v23H76.18q.72-.14,1.44-.3V112.49Z"/><path class="cls-3" d="M26.66,102.92a168.82,168.82,0,0,1,4.75-21h-.08l.42-1.19c4.17-14.17,11.34-32.8,23.12-48.68l.46-.62V57.58H65.58l-2.36-2,2.92-2.84c1.28,1.3,2.7,2.69,4,4.14a2.33,2.33,0,0,0,1.94.8c1.82,0,3.65,0,5.54,0V31.29c.32.38.49.56.63.76l.81,1.28A167,167,0,0,1,94.72,63.1l0-.06c.14.4.29.8.44,1.2,1.61,4,3.2,8.32,4.7,13l1.7,4.69h-.25q.91,3.09,1.77,6.33a179.32,179.32,0,0,1,4.47,22c.39,2.74.71,5.49,1,8.24a65,65,0,1,0-84.22,2c.5-5.89,1.26-11.75,2.32-17.58Z"/><path class="cls-3" d="M65.66,83.37l-2.2-1.8,2.65-2.74c1.42,1.44,2.87,2.92,4.34,4.38a1.6,1.6,0,0,0,.85.53c2.1,0,4.2,0,6.35,0V61.41c-1.93,0-3.82,0-5.71,0a2.75,2.75,0,0,0-1.62.69c-1.48,1.38-2.88,2.85-4.27,4.25l-2.81-2.72,2.51-2.18H55.41V83.67h10Z"/><path class="cls-4" d="M38.14,23.11A3,3,0,0,1,40,26.71,4.21,4.21,0,0,1,38.16,29l-4.45,2.94L27.4,22.33l4.3-2.84a4.25,4.25,0,0,1,2.72-.84,2.66,2.66,0,0,1,2,1.27,2.63,2.63,0,0,1,.48,1.7,2.71,2.71,0,0,1-.66,1.55A2.65,2.65,0,0,1,38.14,23.11Zm-5.86,1.55,1.52-1a1.59,1.59,0,0,0,.72-.83,1.08,1.08,0,0,0-.19-.94,1.1,1.1,0,0,0-.8-.55,1.65,1.65,0,0,0-1.05.32l-1.52,1Zm5,1.82a1.12,1.12,0,0,0-.19-1,1.14,1.14,0,0,0-.85-.57,1.6,1.6,0,0,0-1.11.32L33.4,26.36l1.39,2.11,1.72-1.13A1.67,1.67,0,0,0,37.24,26.48Z"/><path class="cls-4" d="M48.55,21.55l-4,1.56.1,2.13L42,26.3l-.32-12.17,3-1.18,8,9.15-2.75,1.08ZM47.1,19.8l-2.85-3.38.22,4.41Z"/><path class="cls-4" d="M61.87,9.27l1.56,11.35L60.66,21,60,16.33l-4.3.58.65,4.68L53.6,22,52.05,10.62l2.76-.38.61,4.45,4.3-.59-.61-4.45Z"/><path class="cls-4" d="M71,21.15l-2-4.51-.66-.06-.37,4.31-2.78-.24,1-11.41,4.66.4a5.19,5.19,0,0,1,2.26.67,3.27,3.27,0,0,1,1.31,1.41,3.58,3.58,0,0,1,.31,1.87,3.37,3.37,0,0,1-.81,2,3.43,3.43,0,0,1-2,1.1l2.24,4.75Zm-2.51-6.54,1.73.15a1.6,1.6,0,0,0,1.17-.27,1.42,1.42,0,0,0,.48-1,1.36,1.36,0,0,0-.3-1.05,1.6,1.6,0,0,0-1.11-.48l-1.72-.14Z"/><path class="cls-4" d="M82.83,21.86l-4.08-1.29L77.49,22.3l-2.79-.88,7.41-9.67,3.08,1,.49,12.17L82.87,24Zm0-2.27-.09-4.42-2.6,3.57Z"/><path class="cls-4" d="M94.15,16.66,89,26.86,86.47,25.6l5.2-10.21Z"/><path class="cls-4" d="M98.86,33.65,96.62,32l.47-8.45L92.88,29.2l-2.24-1.67,6.84-9.18L99.71,20l-.49,8.48,4.24-5.69,2.23,1.66Z"/></g></svg>