<svg id="Layer_1" data-name="Layer 1" xmlns="http://www.w3.org/2000/svg" xmlns:xlink="http://www.w3.org/1999/xlink" viewBox="0 0 130 140"><defs><style>.cls-1{fill:none;}.cls-2{clip-path:url(#clip-path);}.cls-3{fill:#3db8b1;}.cls-4{fill:#fff;}</style><clipPath id="clip-path"><circle class="cls-1" cx="64.88" cy="70.46" r="65"/></clipPath></defs><g class="cls-2"><path class="cls-3" d="M77.36,134.54v-.26l-1.44.26Z"/><path class="cls-3" d="M71.2,88a1.74,1.74,0,0,0-1,.51c-1.5,1.48-3,3-4.36,4.38L63,90.15l2.34-2.08H55.17V110.4c2.22,0,4.36,0,6.5,0a2.83,2.83,0,0,0,1.5-.55c1.85-1.45,3.66-3,5.32-4.33l3,2.7-2.55,2.14h8.44V88C75.27,88,73.23,88,71.2,88Z"/><path class="cls-3" d="M69.24,113l-.21.33,2.15,2c-.94,1.12-1.75,2.09-2.59,3.11-1.76-1.63-3.52-3.27-5.3-4.9-.29-.26-.64-.62-1-.63-2.38-.05-4.76,0-7.19,0v23H75.92c.48-.09,1-.19,1.44-.3V113Z"/><path class="cls-3" d="M26.4,103.38a168.82,168.82,0,0,1,4.75-21h-.08c.14-.4.28-.79.43-1.19C35.66,67,42.83,48.39,54.61,32.52c.09-.14.2-.26.46-.62V58H65.32L63,56l2.92-2.84c1.28,1.3,2.7,2.69,4.06,4.14a2.28,2.28,0,0,0,1.93.79c1.83,0,3.65,0,5.54,0V31.75a8.29,8.29,0,0,1,.63.76l.81,1.28A167,167,0,0,1,94.46,63.56l0-.06.44,1.2c1.61,4,3.2,8.32,4.7,13l1.7,4.69h-.25c.61,2.06,1.2,4.16,1.77,6.33a177.5,177.5,0,0,1,4.48,22q.57,4.11,1,8.24a65,65,0,1,0-84.22,2c.5-5.89,1.26-11.75,2.32-17.58Z"/><path class="cls-3" d="M65.4,83.83,63.2,82l2.65-2.74c1.42,1.44,2.88,2.92,4.35,4.38a1.57,1.57,0,0,0,.85.53c2.09,0,4.19,0,6.35,0V61.87c-1.94,0-3.83-.06-5.71,0a2.75,2.75,0,0,0-1.63.69c-1.48,1.38-2.88,2.85-4.27,4.24L63,64.12l2.51-2.18H55.15V84.13H65.21Z"/><path class="cls-4" d="M37.88,23.57a3,3,0,0,1,1.89,3.6,4.24,4.24,0,0,1-1.87,2.24l-4.45,2.94-6.31-9.56L31.45,20a4.23,4.23,0,0,1,2.72-.84,2.66,2.66,0,0,1,2,1.27,2.58,2.58,0,0,1,.49,1.7A2.73,2.73,0,0,1,36,23.63,2.65,2.65,0,0,1,37.88,23.57ZM32,25.12l1.53-1a1.6,1.6,0,0,0,.71-.83,1.1,1.1,0,0,0-.18-.94,1.13,1.13,0,0,0-.8-.55,1.58,1.58,0,0,0-1.05.32l-1.53,1Zm5,1.82a1.11,1.11,0,0,0-.18-1,1.18,1.18,0,0,0-.86-.57,1.6,1.6,0,0,0-1.11.32l-1.69,1.11,1.4,2.11,1.71-1.13A1.66,1.66,0,0,0,37,26.94Z"/><path class="cls-4" d="M48.29,22l-4,1.55.1,2.14-2.72,1.06-.31-12.17,3-1.18,8,9.15-2.75,1.08Zm-1.45-1.75L44,16.88l.22,4.41Z"/><path class="cls-4" d="M61.61,9.73l1.56,11.35-2.76.37-.64-4.67-4.3.59L56.11,22l-2.77.38L51.79,11.08l2.76-.38.61,4.44,4.3-.58-.61-4.45Z"/><path class="cls-4" d="M70.71,21.61l-2-4.51L68,17l-.37,4.31-2.78-.24,1-11.41,4.66.4a5.19,5.19,0,0,1,2.26.67,3.27,3.27,0,0,1,1.31,1.41,3.67,3.67,0,0,1,.32,1.87,3.45,3.45,0,0,1-.82,2,3.54,3.54,0,0,1-2,1.1l2.24,4.74Zm-2.5-6.54,1.72.15A1.64,1.64,0,0,0,71.11,15a1.45,1.45,0,0,0,.47-1,1.36,1.36,0,0,0-.3-1.06,1.6,1.6,0,0,0-1.11-.47l-1.72-.15Z"/><path class="cls-4" d="M82.57,22.32,78.49,21l-1.26,1.72-2.78-.88,7.4-9.67,3.08,1,.5,12.17-2.82-.89Zm0-2.27-.09-4.42-2.6,3.57Z"/><path class="cls-4" d="M93.9,17.12l-5.2,10.2-2.49-1.26,5.2-10.21Z"/><path class="cls-4" d="M98.6,34.11l-2.24-1.67L96.84,24l-4.22,5.67L90.38,28l6.84-9.18,2.24,1.66L99,29l4.24-5.69,2.24,1.66Z"/></g></svg>