<svg id="Layer_1" data-name="Layer 1" xmlns="http://www.w3.org/2000/svg" xmlns:xlink="http://www.w3.org/1999/xlink" viewBox="0 0 130 140"><defs><style>.cls-1{fill:none;}.cls-2{clip-path:url(#clip-path);}.cls-3{fill:#3db8b1;}.cls-4{fill:#fff;}</style><clipPath id="clip-path"><circle class="cls-1" cx="65" cy="70" r="65"/></clipPath></defs><g class="cls-2"><circle class="cls-3" cx="65" cy="70" r="65"/><path class="cls-4" d="M128.48,87.53c-.11.46-.22.93-.34,1.39C128.26,88.46,128.37,88,128.48,87.53Z"/><path class="cls-4" d="M130.23,74a66.47,66.47,0,0,1-.8,8.76,66.17,66.17,0,0,0,.83-10.41h0c0,.2,0,.41,0,.61C130.25,73.34,130.24,73.69,130.23,74Z"/><path class="cls-4" d="M70.87,137.15l-1.31.1Z"/><path class="cls-4" d="M129,85.18c-.13.65-.27,1.29-.42,1.94C128.73,86.47,128.87,85.83,129,85.18Z"/><path class="cls-4" d="M129.39,83c-.1.6-.21,1.19-.32,1.78C129.18,84.23,129.29,83.64,129.39,83Z"/><path class="cls-4" d="M38.46,114.91c-.13-1.35-.17-2.72-.24-4.07-.11-2.25-.62-4.53.14-6.81a14.34,14.34,0,0,0,1-4.46,3.58,3.58,0,0,1,.39-.29,10.18,10.18,0,0,0,4.82-10.82,10.53,10.53,0,0,0-5.24-7A2.87,2.87,0,0,0,39,80.16a26.39,26.39,0,0,1-1.11-3.71c-.28-2.26-3.3-28.71-3.3-28.71S31.32,76.58,30.4,78.86a6.67,6.67,0,0,0-.7,2.48c-.26.2-.52.4-.79.58a10.55,10.55,0,0,0-4,5.06,10.26,10.26,0,0,0,4.68,12.5,5.66,5.66,0,0,0,.26,1.35c.43,2.39,1.46,4.64,1.13,7.2-.36,2.86-.25,5.77-.49,8.65-.1,1.16-.1,2.32-.17,3.47L30,125.08a58.73,58.73,0,0,0,9.42,5.7c-.16-2.34-.33-4.68-.46-7C38.76,120.81,38.75,117.85,38.46,114.91Z"/><path class="cls-4" d="M65.11,132.46c-.09-1.25-.2-2.49-.32-3.73-.16-1.79-.32-3.59-.44-5.38q-.34-5.35-.8-10.71c-.27-3.2-.36-6.42-.65-9.62-.1-1.06-.11-2.12-.2-3.18-.25-3.2-.7-6.4-.73-9.61-.11-8.83-2.45-28.89-2.45-28.89s-1.16,19.37-1.21,28.44c0,2.15-.23,4.3-.4,6.45-.24,3.1-.54,6.2-.77,9.31-.18,2.28-.25,4.57-.43,6.85-.25,3.24-.55,6.47-.8,9.71-.06.73-.12,1.45-.16,2.17q-.28,4-.59,8a2.36,2.36,0,0,1,0,.31l-.24,3.11a58.89,58.89,0,0,0,9.82.82h.88l-.37-3.64A1.09,1.09,0,0,1,65.11,132.46Z"/><path class="cls-4" d="M91.74,124.59c-.16-2-.43-3.88-.54-5.83-.13-2.3-.6-4.61.26-6.9a26.13,26.13,0,0,0,.84-3.57,3.66,3.66,0,0,1,.42-.26,13,13,0,0,0,4.15-3.35,10.9,10.9,0,0,0,2.51-7.31h2.67c2.58,0,2.56,0,2.52-2.55,0-.64-.19-.87-.85-.86-1.62,0-3.24,0-4.86,0a5.27,5.27,0,0,0-.14-.57A13.27,13.27,0,0,0,98,91.8a11.69,11.69,0,0,0-7.12-6h0V72.5a7.51,7.51,0,0,0,2.36-2.4c2-3.45,1-7.12-2.53-9.52-.29-2.39-3.31-26.43-3.31-26.43s-3,24-3.28,26.43A6.89,6.89,0,0,0,84,72.51V85.83l-.92.37A11.63,11.63,0,0,0,76,94l-3.19,0c-2.59,0-2.57,0-2.51,2.6,0,.7.3.83.9.81,1.43,0,2.87,0,4.3,0,0,0-.4,5.44,3.71,8.62h0a14.28,14.28,0,0,0,3.36,2.31,1.6,1.6,0,0,0,.09.78c.74,2.92,1.63,5.8,1.09,8.9-.3,1.79-.29,3.63-.44,5.45-.18,2.13-.38,4.27-.57,6.4h0v3.82a58,58,0,0,1-12.56,2.63,57.87,57.87,0,0,0,21.94-6.58v-.07Q92,127.11,91.74,124.59Z"/><path class="cls-4" d="M127.66,90.63c.08-.27.16-.54.23-.82C127.82,90.09,127.74,90.36,127.66,90.63Z"/><path class="cls-4" d="M37.06,131.15c0,.08,0,.16,0,.24q2.63,1.25,5.36,2.26h.65a64.35,64.35,0,0,0,11.22,2.89v-.07A64.66,64.66,0,0,1,37.05,131C37.05,131,37.06,131.09,37.06,131.15Z"/><path class="cls-4" d="M66.24,137.4c1.12,0,2.22-.08,3.32-.15-1.1.07-2.21.11-3.32.13Z"/><path class="cls-4" d="M71.38,137.1l-.51.05Z"/><path class="cls-4" d="M128.58,87.12c0,.13-.06.27-.1.41C128.52,87.39,128.55,87.25,128.58,87.12Z"/><path class="cls-4" d="M128.14,88.92c-.08.3-.16.6-.25.89C128,89.51,128.06,89.22,128.14,88.92Z"/><path class="cls-4" d="M129.07,84.82c0,.12,0,.24-.07.36C129,85.06,129,84.94,129.07,84.82Z"/><path class="cls-4" d="M129.43,82.8a2,2,0,0,0,0,.24A2,2,0,0,1,129.43,82.8Z"/><path class="cls-4" d="M95.83,129.76c0,.05,0,.1,0,.15l.36-.2a65.44,65.44,0,0,0,31.45-39.08A65.14,65.14,0,0,1,95.83,129.76Z"/></g><path class="cls-4" d="M42.29,26.38l-5.92-2.56,2.51,4.47-2.46,1.39L30.73,19.55l2.47-1.38,2.49,4.44.89-6.34,2.89-1.62-1.13,7.16,7,2.88Z"/><path class="cls-4" d="M45.63,12.44l2,6.67a2.3,2.3,0,0,0,.95,1.39,1.93,1.93,0,0,0,1.6.12,2,2,0,0,0,1.3-1A2.25,2.25,0,0,0,51.5,18l-2-6.67,2.72-.8,2,6.65a4.86,4.86,0,0,1,.1,2.71,4.2,4.2,0,0,1-1.24,2.06,5.61,5.61,0,0,1-2.24,1.23,5.39,5.39,0,0,1-2.5.18,4,4,0,0,1-2.11-1.08,5.13,5.13,0,0,1-1.34-2.35l-2-6.65Z"/><path class="cls-4" d="M73,9.33,70,21H66.57l-1.88-7.63L62.8,21l-3.42,0-3-11.6,3,0,1.71,8.45,2-8.46,3.11,0,2,8.45,1.65-8.46Z"/><path class="cls-4" d="M81.48,21.56l-4.17-1.19-1.23,1.78-2.85-.82,7.24-10,3.15.9.84,12.32-2.88-.83Zm-.1-2.3-.21-4.48-2.54,3.69Z"/><path class="cls-4" d="M92.79,16l-5,10.49-2.55-1.21,5-10.49Z"/><path class="cls-4" d="M102.84,22.12,101.59,24,99,22.31,93.86,30.1l-2.35-1.56,5.16-7.79-2.57-1.7,1.26-1.89Z"/></svg>