<svg id="Layer_1" data-name="Layer 1" xmlns="http://www.w3.org/2000/svg" xmlns:xlink="http://www.w3.org/1999/xlink" viewBox="0 0 130 140"><defs><style>.cls-1{fill:none;}.cls-2{clip-path:url(#clip-path);}.cls-3{fill:#1e9597;}.cls-4{fill:#fff;}</style><clipPath id="clip-path"><circle class="cls-1" cx="65" cy="70" r="65"/></clipPath></defs><g class="cls-2"><circle class="cls-3" cx="64.99" cy="70.01" r="64.99"/><path class="cls-4" d="M94.12,135.08q0-3.66.07-7.32h-.5c0-8,0-25.55,0-33.55h0c0-10.19.07-20.38,0-30.56-.07-8.29-2.88-15.37-9.41-20.82a61.6,61.6,0,0,0-19-10.53,2.49,2.49,0,0,0-1.72.08,66.42,66.42,0,0,0-16.24,8.4c-8.22,5.81-12,13.75-12,23.74,0,17.93,0,45.43,0,63.37h0a45.07,45.07,0,0,1-.6,7.14h.62v.68c0,1,.29,1.33,1.33,1.32q27.92,0,55.85,0c1,0,1.31-.28,1.31-1.32v-.64Zm-27.3-23.14c-.06,2,0,4-.08,6,0,.09,0,9.72,0,9.79H62.13c0-.09,0-9.76,0-9.89-.07-2.3,0-4.6,0-6.9a4.45,4.45,0,0,1,.26-1.85,2.4,2.4,0,0,1,1.9-1.65A2.31,2.31,0,0,1,66.41,109,6,6,0,0,1,66.82,111.94Zm6-19.31-.06,35.13h-3.5c0-.07,0-9.71,0-9.8-.06-1.55,0-3.1,0-4.65h0V109.8c0-2.81-1.16-4.3-3.89-5-2.48-.67-5.61,1.56-5.66,4.12-.05,3,0,6,0,9,0,.11,0,9.77,0,9.85H55.87c0-7.44,0-24.45,0-31.89,0-1,0-1.81,0-2.41a14.08,14.08,0,0,1,4.84-11.29,14.45,14.45,0,0,1,2-1.16,3.36,3.36,0,0,1,3.41,0,11.92,11.92,0,0,1,4.2,3.24,13.12,13.12,0,0,1,1.33,2.49c.08.23.16.44.22.67a.13.13,0,0,0,.06.07A15.74,15.74,0,0,1,72.78,92.63Zm3.9,35.13H75.51V79.5l.08.12c0-1.63,0-3.26,0-4.89a2.41,2.41,0,0,0-1-2.15,63.41,63.41,0,0,0-9.57-6,.87.87,0,0,0-.94-.09c-3.54,2-7.18,3.79-10.26,6.49a1.28,1.28,0,0,0-.56.94v5.69h0V86l.08,41.8H52.24c0-15.71,0-41,0-56.69a9,9,0,0,1,4.09-7.89c2.37-1.67,4.9-3.07,7.39-4.53a1.34,1.34,0,0,1,1.5,0C67.49,60,69.77,61.33,72,62.76a9.81,9.81,0,0,1,4.71,9C76.65,87.23,76.67,112.28,76.68,127.76Z"/><path class="cls-4" d="M44.63,24.55a5.75,5.75,0,0,1-2.77-1.23A6,6,0,0,1,40,20.72a5.82,5.82,0,0,1-.31-3.15A5.62,5.62,0,0,1,41,14.83a6.22,6.22,0,0,1,2.55-1.76,6.16,6.16,0,0,1,3.08-.33A5.57,5.57,0,0,1,49.4,14a5.89,5.89,0,0,1,1.8,2.59,6,6,0,0,1,.33,3.16,5.69,5.69,0,0,1-1.28,2.74,6.29,6.29,0,0,1-5.62,2.08Zm3.94-4.39a3.45,3.45,0,0,0-.07-2.58,3.48,3.48,0,0,0-1.63-2,3.19,3.19,0,0,0-4.19,1.55,3.51,3.51,0,0,0,.07,2.6,3.54,3.54,0,0,0,1.64,2,2.87,2.87,0,0,0,2.42.08A2.82,2.82,0,0,0,48.57,20.16Z"/><path class="cls-4" d="M66.54,9.07l.94,11.57-2.82.23-.56-6.94-2,7.15-2.28.19-3.17-6.75.57,7-2.82.23-.94-11.57,3.33-.27,3.9,7.74,2.56-8.27Z"/><path class="cls-4" d="M76.58,20.21l-4.26-.78-1.06,1.89-2.91-.53,6.23-10.66,3.22.59,2,12.18-3-.55Zm-.32-2.28-.65-4.44-2.17,3.93Z"/><path class="cls-4" d="M90.17,27.45,87.59,26.3l-1.42-8.46-2.91,6.54-2.58-1.15,4.71-10.61L88,13.77l1.4,8.5,2.92-6.58,2.58,1.15Z"/></g></svg>