<svg id="Layer_1" data-name="Layer 1" xmlns="http://www.w3.org/2000/svg" xmlns:xlink="http://www.w3.org/1999/xlink" viewBox="0 0 130 140"><defs><style>.cls-1{fill:none;}.cls-2{clip-path:url(#clip-path);}.cls-3{fill:#1e9597;}.cls-4{fill:#fff;}</style><clipPath id="clip-path"><circle class="cls-1" cx="65" cy="70" r="65"/></clipPath></defs><g class="cls-2"><circle class="cls-3" cx="65.1" cy="70.15" r="64.69"/><path class="cls-4" d="M67.45,46.22A1.15,1.15,0,0,1,66.71,45c0-1.5,0-3,0-4.51H63.26c0,1.56,0,3,0,4.51a1.16,1.16,0,0,1-.73,1.25,4.75,4.75,0,0,0-2.67,4.4H70.11A4.76,4.76,0,0,0,67.45,46.22Z"/><path class="cls-4" d="M56.68,76.15c4.32-1.34,8.64-2.67,12.95-4,.21-.07.49-.31.5-.47,0-1.78,0-3.57,0-5.34a1.83,1.83,0,0,0-.32,0c-4.31,1.38-8.61,2.76-12.91,4.17a.82.82,0,0,0-.44.61c0,1.67,0,3.33,0,5C56.61,76.14,56.65,76.16,56.68,76.15Z"/><path class="cls-4" d="M73.56,105.21H92.27V95H73.56Z"/><path class="cls-4" d="M76.94,73.49,53.05,80.83V91.61l23.89-7.16Z"/><path class="cls-4" d="M59.9,65.69c.14,0,.21.06.26,0,3.17-1,6.34-2.07,9.51-3.14a.83.83,0,0,0,.46-.6c0-2.59,0-5.19,0-7.87H59.9Z"/><path class="cls-4" d="M50.56,105.29q9.28,0,18.57,0c.79,0,1.05-.19,1.05-1-.05-3.86,0-7.72,0-11.58V91.59H80.35V87c-10.12,3-20.09,6-30.07,9-.59.17-.72.47-.71,1,0,2.45,0,4.89,0,7.34C49.54,105.14,49.83,105.29,50.56,105.29Z"/><path class="cls-4" d="M106,120.4v-4.23c0-1,.28-2.15-.17-2.82s-1.68-.81-2.58-1.16l-7.5-2.86v19.78c-1.12.74-2.28,1.45-3.46,2.11V108.7H37.6v22.48c-1.16-.65-2.28-1.34-3.39-2.07V109.36l-1,.35c-2.76,1.06-5.51,2.15-8.29,3.16a1.2,1.2,0,0,0-1,1.36c0,2.06,0,6.16,0,6.16s16.28,19.33,41.14,18.26C91.43,137.51,104.3,122.07,106,120.4Z"/><path class="cls-4" d="M45.38,105.27c.25,0,.5,0,.79-.06v-5H37.71v5.1Z"/><path class="cls-4" d="M46.89,27.83l-2.2-1.15a6.83,6.83,0,0,1-1.1.68,6.08,6.08,0,0,1-3,.62,5.83,5.83,0,0,1-2.87-1,6,6,0,0,1-2-2.41,5.88,5.88,0,0,1-.61-3.09,5.69,5.69,0,0,1,1-2.84,6.24,6.24,0,0,1,5.38-2.59,5.58,5.58,0,0,1,2.85,1A6.35,6.35,0,0,1,47,22.15a5.5,5.5,0,0,1-.62,2.56L50,26.35Zm-6.83-2.64a3.15,3.15,0,0,0,4-1.94,3.49,3.49,0,0,0-.31-2.55,3.53,3.53,0,0,0-1.82-1.85,3.16,3.16,0,0,0-4,1.93,3.46,3.46,0,0,0,.31,2.57A3.53,3.53,0,0,0,40.06,25.19Z"/><path class="cls-4" d="M56.71,20.93l-4.22.88L52.22,24l-2.89.59,1.76-12.17,3.2-.66,6.43,10.48-2.92.6Zm-1.15-2L53.3,15.1l-.53,4.43Z"/><path class="cls-4" d="M70.11,10.82l0,2.26-3.06,0-.09,9.31-2.81,0,.08-9.3-3.06,0,0-2.26Z"/><path class="cls-4" d="M78.57,22l-4.21-.94-1.12,1.85-2.88-.65L77,11.91l3.19.71,1.56,12.2-2.91-.65Zm-.23-2.28-.48-4.44-2.3,3.82Z"/><path class="cls-4" d="M87.89,27.79l-.31-5L87,22.53,85.1,26.48l-2.55-1.21,4.94-10.45,4.28,2a5.29,5.29,0,0,1,1.9,1.42,3.36,3.36,0,0,1,.74,1.8,3.66,3.66,0,0,1-.36,1.88,3.37,3.37,0,0,1-1.46,1.59,3.55,3.55,0,0,1-2.29.34l.46,5.28Zm-.07-7.06,1.57.74a1.62,1.62,0,0,0,1.22.16,1.41,1.41,0,0,0,.8-.81,1.39,1.39,0,0,0,.1-1.1,1.64,1.64,0,0,0-.89-.84L89,18.14Z"/></g></svg>