<svg id="Layer_1" data-name="Layer 1" xmlns="http://www.w3.org/2000/svg" xmlns:xlink="http://www.w3.org/1999/xlink" viewBox="0 0 130 140"><defs><style>.cls-1{fill:none;}.cls-2{fill:#1e9597;}.cls-3{clip-path:url(#clip-path);}.cls-4{fill:#fff;}</style><clipPath id="clip-path"><circle class="cls-1" cx="65" cy="70" r="65"/></clipPath></defs><circle class="cls-2" cx="65" cy="70" r="64.74"/><g class="cls-3"><path class="cls-4" d="M81.5,45.81c.6-1.66.16-2.27-1.31-2.49-3.38-.52-6.75-1.19-10.12-1.8H57.8c-3.37.61-6.73,1.28-10.12,1.79-1.65.25-1.91,1-1.26,2.52A58.56,58.56,0,0,1,81.5,45.81Z"/><path class="cls-4" d="M79.81,46.85C74.57,45.93,69.34,45,64,44L48,46.88c-1.3.23-1.82.9-1.58,2.3.3,1.77.33,3.59.59,5.38,1.59,10.6,4.33,20.88,9.26,30.46a32.68,32.68,0,0,0,4.19,6.23c2.42,2.85,4.47,2.88,6.87.12a31.43,31.43,0,0,0,4.21-6.21,98.38,98.38,0,0,0,9.93-35.83C81.59,47.9,81.28,47.11,79.81,46.85Zm-2.09,4.92A82,82,0,0,1,67.61,86a11.31,11.31,0,0,1-1,1.34C64.56,90,63.1,90,61.13,87.24c-4.32-6.13-6.64-13.16-8.42-20.32-1.22-4.92-1.72-10-2.55-15a1.85,1.85,0,0,1,1.75-2.46c4-.67,8-1.41,12-2.12,4,.71,8,1.42,11.89,2.1C77.21,49.63,77.84,50.23,77.72,51.77Z"/><path class="cls-4" d="M86.38,131.64l-.08,0v-.75a4.34,4.34,0,0,1,0-.51V44H83.42c-.36,3.58-.59,7-1.08,10.43-1.57,11-4.44,21.66-9.58,31.58a31.4,31.4,0,0,1-4.38,6.38c-2.94,3.3-5.9,3.33-8.84.06A33.59,33.59,0,0,1,55,85.88,83.88,83.88,0,0,1,47,62.38C45.79,56.32,45.09,50.17,44.16,44H41.57v87a56.28,56.28,0,0,0,44.83.77A.43.43,0,0,1,86.38,131.64Z"/></g><path class="cls-4" d="M21.34,46.85a3.7,3.7,0,0,1-1.89.71,3.35,3.35,0,0,1-2-.5l1.61-2.54a1.47,1.47,0,0,0,1.06.15A1.49,1.49,0,0,0,21,44a1.57,1.57,0,0,0,.28-1,.93.93,0,0,0-.48-.73,1,1,0,0,0-.76-.14,2.43,2.43,0,0,0-.77.36,9.64,9.64,0,0,0-1,.79,14.54,14.54,0,0,1-1.56,1.18,3.4,3.4,0,0,1-1.52.48,2.85,2.85,0,0,1-1.77-.51,3,3,0,0,1-1.51-2.34,4.78,4.78,0,0,1,.85-3.06,4.92,4.92,0,0,1,2.42-2.13,3.3,3.3,0,0,1,2.82.3L16.35,39.8a1.2,1.2,0,0,0-1-.12,1.45,1.45,0,0,0-.79.65,1.25,1.25,0,0,0-.21.85,1.05,1.05,0,0,0,1.52.7,9.06,9.06,0,0,0,1.45-1,16.2,16.2,0,0,1,1.58-1.15,3.64,3.64,0,0,1,1.5-.49,2.72,2.72,0,0,1,1.71.47,3.34,3.34,0,0,1,1.25,1.39A3.49,3.49,0,0,1,23.7,43a4.94,4.94,0,0,1-.8,2.17A6,6,0,0,1,21.34,46.85Z"/><path class="cls-4" d="M29.49,33.81l-3,3.07,1,1.93L25.34,40.9,20.06,29.78l2.3-2.32,11.17,5.17-2.1,2.12Zm-2.06-1-4-2,2,4Z"/><path class="cls-4" d="M30.53,20.86l3.69,5.87a2.32,2.32,0,0,0,1.28,1.08,1.92,1.92,0,0,0,1.57-.33,1.94,1.94,0,0,0,1-1.28,2.21,2.21,0,0,0-.4-1.63L34,18.7l2.39-1.5L40,23.05a4.92,4.92,0,0,1,.84,2.57,4.32,4.32,0,0,1-.64,2.31,5.63,5.63,0,0,1-1.81,1.79,5.54,5.54,0,0,1-2.36.85,4.08,4.08,0,0,1-2.31-.46,5.19,5.19,0,0,1-1.93-1.89l-3.68-5.85Z"/><path class="cls-4" d="M47.52,13.57a5.22,5.22,0,0,1,2.67,1.23,6,6,0,0,1,1.7,2.61,6.07,6.07,0,0,1,.28,3.1,5.18,5.18,0,0,1-1.34,2.63,6.8,6.8,0,0,1-2.78,1.73L44,26.29,40.16,15.35l4.1-1.42A6.7,6.7,0,0,1,47.52,13.57ZM49.15,21a3.31,3.31,0,0,0,0-2.63,3.09,3.09,0,0,0-4.3-2.08l-1.27.43,2.21,6.36,1.26-.44A3.42,3.42,0,0,0,49.15,21Z"/><path class="cls-4" d="M56,11,57.93,22.4l-2.78.48L53.21,11.46Z"/><path class="cls-4" d="M70.39,20.13l-4.31-.27-.82,2-3-.19,4.93-11.28,3.26.21,3.43,11.82-3-.19Zm-.58-2.22-1.16-4.32L67,17.73Z"/><path class="cls-4" d="M80.5,24.39l-1.09-4.87-.64-.19-1.23,4.19-2.71-.79,3.25-11.11L82.62,13a5.34,5.34,0,0,1,2.11,1.11,3.33,3.33,0,0,1,1,1.67,3.65,3.65,0,0,1-.06,1.91,3.38,3.38,0,0,1-3.41,2.49l1.27,5.15Zm-1.17-7,1.67.49a1.64,1.64,0,0,0,1.23,0A1.43,1.43,0,0,0,82.9,17a1.4,1.4,0,0,0-.08-1.11,1.67,1.67,0,0,0-1-.69l-1.68-.49Z"/><path class="cls-4" d="M92.07,27.45l-3.78-2.09-1.6,1.45-2.58-1.42,9.27-8.1,2.86,1.58L94.3,31l-2.61-1.45Zm.42-2.25.8-4.4-3.29,3Z"/><path class="cls-4" d="M104.68,33.77a2.79,2.79,0,0,1-.74,1.74,2.84,2.84,0,0,1-2.29,1A4.27,4.27,0,0,1,99,35.29l-4-3.6,7.73-8.62,3.88,3.48A4.27,4.27,0,0,1,108.09,29a2.94,2.94,0,0,1-2.25,3.21,2.79,2.79,0,0,1-1.69-.25A2.67,2.67,0,0,1,104.68,33.77Zm-3.52,0a1.13,1.13,0,0,0,.91-.44,1.18,1.18,0,0,0,.34-1,1.7,1.7,0,0,0-.6-1L100.29,30l-1.71,1.9,1.55,1.39A1.69,1.69,0,0,0,101.16,33.76Zm.5-5.32L103,29.67a1.65,1.65,0,0,0,1,.49,1.3,1.3,0,0,0,1.2-1.35,1.59,1.59,0,0,0-.58-.94l-1.38-1.23Z"/><path class="cls-4" d="M113.36,33.89l-9,7.34-1.79-2.18,8.95-7.34Z"/><path class="cls-4" d="M111.05,47.74,108.88,44l-2.11.43-1.48-2.56,12.12-2.17L119,42.52,111.12,52l-1.49-2.59ZM112.57,46l3-3.36-4.38.89Z"/></svg>