<svg id="Layer_1" data-name="Layer 1" xmlns="http://www.w3.org/2000/svg" viewBox="0 0 130 140"><defs><style>.cls-1{fill:#1e9597;}.cls-2{fill:#fff;}</style></defs><circle class="cls-1" cx="65" cy="70" r="65"/><path class="cls-2" d="M59.28,71.08a.6.6,0,0,0,.06-.39q0-8,0-16c0-.17,0-.34,0-.51s.06-.21.24-.21h1c.29,0,.3,0,.29-.24,0-1.94,0-3.87,0-5.81a.57.57,0,0,1,.29-.53c.66-.46,1.26-1,1.93-1.41a.83.83,0,0,0,.39-.82c0-2.48,0-5,0-7.45a1.15,1.15,0,0,1,0-.19c0-.09,0-.15.16-.12h.08c.54,0,.54,0,.54-.46v-4c0-.26,0-.26.31-.27s.35,0,.52,0,.19.05.19.16,0,.27,0,.41c0,1.26,0,2.52,0,3.77v.16c0,.24,0,.24.31.24h1.28c.14,0,.19,0,.19.16,0,2,0,4.1,0,6.16a.43.43,0,0,0,.28.43c.6.32,1.18.67,1.77,1a.21.21,0,0,1,.13.21V58.71c0,.35,0,.35.41.35h1.4c.28,0,.29,0,.29.25,0,.62,0,8.26,0,11.45v.13c0,.15.06.2.24.19.51,0,1,0,1.54,0,.31,0,.31,0,.31.25,0,1.51.15,19.16.15,21.88,0,.35,0,.35.43.35h1.84c.3,0,.31,0,.31.26,0,3,0,12.53,0,14.37,0,.5,0,.4.48.41h2.59c.34,0,.34,0,.34.3v17.36c0,.09,4.34-.1,4.34.14s0-.19,0,0c0,1.64,0,4.34,0,6,0,.27-8,2.5-18.94,2.62-8.68,0-17.32-1.9-17.32-2.27v-7.79a22.7,22.7,0,0,0,2.68-.13.19.19,0,0,0,.2-.22V105.84c0-.28,0-.57,0-.85s0-.21.25-.21c.93,0,1.86,0,2.78,0,.5,0,.41,0,.41-.33V88.77c0-.2,0-.21.26-.21h2.14c.44,0,.4,0,.4-.34V71.28c0-.2,0-.2.25-.2Z"/><path class="cls-2" d="M51.35,11.61l1.32,6.68a2.23,2.23,0,0,0,.79,1.44A1.91,1.91,0,0,0,55,20a2,2,0,0,0,1.35-.83,2.22,2.22,0,0,0,.21-1.65l-1.32-6.68L58,10.3,59.3,17a4.9,4.9,0,0,1-.14,2.66,4.2,4.2,0,0,1-1.4,1.89,5.47,5.47,0,0,1-2.29,1A5.39,5.39,0,0,1,53,22.46a3.92,3.92,0,0,1-2-1.24,5.09,5.09,0,0,1-1.11-2.41l-1.31-6.67Z"/><path class="cls-2" d="M69,19.56l-4.24-.15-.75,2-2.9-.1,4.53-11.23,3.2.12,3.7,11.52-2.93-.1Zm-.63-2.16-1.26-4.22-1.54,4.11Z"/><path class="cls-2" d="M78.33,13.84l-.55,2.23,3.6.89L80.88,19l-3.61-.88-.59,2.43,4.08,1-.53,2.16-6.77-1.66,2.7-11,6.77,1.66-.52,2.15Z"/></svg>