<svg xmlns="http://www.w3.org/2000/svg" viewBox="0 0 24 24"><defs><style>.cls-1{fill:#93d1bc;}.cls-2{fill:#fff;}</style></defs><g id="Layer_2" data-name="Layer 2"><rect class="cls-1" x="0.22" y="0.15" width="23.7" height="23.7" rx="4"/></g><g id="Layer_1" data-name="Layer 1"><path class="cls-2" d="M4.63,14.42V9.58a.53.53,0,0,1,.55-.33H9.09c.14,0,.17,0,.17-.18,0-1.22,0-2.43,0-3.65,0-.13,0-.25,0-.37a.42.42,0,0,1,.45-.42H14.3a.41.41,0,0,1,.26.09.46.46,0,0,1,.19.44v3.9c0,.23,0,.19.19.19h3.92a.45.45,0,0,1,.51.5v4.5a.55.55,0,0,1,0,.18.44.44,0,0,1-.49.32h-4c-.12,0-.16,0-.16.16,0,1.31,0,2.62,0,3.93a.52.52,0,0,1-.33.54H9.58a.52.52,0,0,1-.33-.54c0-1.31,0-2.62,0-3.93,0-.13,0-.16-.16-.16H5.18A.53.53,0,0,1,4.63,14.42Z"/></g></svg>