<svg id="Layer_2" data-name="Layer 2" xmlns="http://www.w3.org/2000/svg" viewBox="0 0 24 24"><defs><style>.cls-1{fill:#93d1bc;}.cls-2{fill:#fff;}</style></defs><rect class="cls-1" x="0.15" y="0.15" width="23.7" height="23.7" rx="4"/><path class="cls-2" d="M12,18.83H6.11c-.07,0-.09,0-.09-.08s0-.3,0-.45A.32.32,0,0,1,6.35,18a3.53,3.53,0,0,1,.46,0c.05,0,.07,0,.07-.07V8.4a.65.65,0,0,1,.69-.67H9.78c.07,0,.09,0,.09-.09,0-.6,0-1.19,0-1.79a.65.65,0,0,1,.68-.68h2.92a.64.64,0,0,1,.68.67c0,.6,0,1.2,0,1.8,0,.07,0,.09.09.09h2.23a.66.66,0,0,1,.64.43.83.83,0,0,1,0,.27v9c0,.16,0,.32,0,.48s0,.07.06.07a3.69,3.69,0,0,1,.47,0,.31.31,0,0,1,.33.33c0,.15,0,.3,0,.46s0,.06-.06.06H12Zm-.85-2V17.9c0,.06,0,.08.07.08q.78,0,1.56,0c.06,0,.07,0,.07-.08V15.76a.32.32,0,0,0-.34-.34h-1a.32.32,0,0,0-.34.34Zm0-9.09h.3c.06,0,.08,0,.07.08v.57c0,.15.06.2.2.2h.46c.14,0,.2-.05.2-.19V7.8c0-.06,0-.07.07-.07h.6c.12,0,.18-.06.18-.19V7.08c0-.14-.06-.2-.2-.2h-.59c-.05,0-.06,0-.06-.07v-.6A.17.17,0,0,0,12.24,6h-.46c-.15,0-.21.06-.21.21v.58c0,.05,0,.07-.06.07H10.9a.16.16,0,0,0-.18.16v.53a.16.16,0,0,0,.17.16Zm2.5,6.83h.52a.32.32,0,0,0,.34-.34v-1a.32.32,0,0,0-.34-.34h-1a.33.33,0,0,0-.35.35v1a.33.33,0,0,0,.34.34Zm-3.4,0h.51a.33.33,0,0,0,.34-.34v-1a.33.33,0,0,0-.34-.34h-1a.32.32,0,0,0-.34.34v1a.31.31,0,0,0,.33.33Zm0-4.27H9.77a.32.32,0,0,0-.33.34v1a.32.32,0,0,0,.34.33h1a.33.33,0,0,0,.34-.34v-1a.33.33,0,0,0-.34-.34Zm3.41,0h-.53a.33.33,0,0,0-.33.32v1.06a.33.33,0,0,0,.33.33h1.05a.31.31,0,0,0,.33-.31V10.61a.32.32,0,0,0-.32-.32Z"/></svg>