<svg xmlns="http://www.w3.org/2000/svg" viewBox="0 0 24 24"><defs><style>.cls-1{fill:#93d1bc;}.cls-2{fill:#fff;}</style></defs><g id="Layer_2" data-name="Layer 2"><rect class="cls-1" x="0.22" y="0.15" width="23.7" height="23.7" rx="4"/></g><g id="Layer_1" data-name="Layer 1"><path class="cls-2" d="M9.48,13a4,4,0,1,0-4-4.08A4,4,0,0,0,9.48,13ZM7.07,11.72,9.28,8.63c.67-.92,1.33-1.85,2-2.78.07-.09.11-.11.21,0s.34.24.5.35l.09.07a.83.83,0,0,0-.08.12L8.47,11.21c-.24.33-.48.65-.71,1-.06.09-.1.09-.18,0a4.07,4.07,0,0,0-.48-.33C7,11.83,7,11.79,7.07,11.72Z"/><path class="cls-2" d="M18.21,13.39a2.42,2.42,0,0,0-2.69-1.31c-1.23.29-2.45.63-3.68.95l-.05,0L9,13.76a10.11,10.11,0,0,0-1.33.38,2.5,2.5,0,0,0-1.44,2.63A2.55,2.55,0,0,0,8.76,19a1.46,1.46,0,0,0,.49-.06l3.86-1h0l2.43-.63c.47-.13,1-.21,1.4-.38a2.43,2.43,0,0,0,1.53-2.32A2.66,2.66,0,0,0,18.21,13.39Zm-1,2.7a2.18,2.18,0,0,1-.94.4l-2.69.7c-.08,0-.1,0-.12-.08-.31-1.17-.61-2.34-.92-3.51,0-.09,0-.11.07-.13l3.15-.8a.66.66,0,0,1,.23,0,2,2,0,0,1,1.22,3.44Z"/></g></svg>