<svg xmlns="http://www.w3.org/2000/svg" viewBox="0 0 24 24"><defs><style>.cls-1{fill:#93d1bc;}.cls-2{fill:#fff;}</style></defs><g id="Layer_2" data-name="Layer 2"><rect class="cls-1" x="0.22" y="0.15" width="23.7" height="23.7" rx="4"/></g><g id="Layer_1" data-name="Layer 1"><path class="cls-2" d="M13.12,13.2V11.52a.79.79,0,0,1,.61-.82s2-.69,2.37-.82a.68.68,0,0,1,.56,0L17,10c.45-.23.9-.47,1.34-.73a4,4,0,0,0,.92-.66.47.47,0,0,0,.05-.67A1.42,1.42,0,0,0,19,7.61a2.54,2.54,0,0,0-1.33-.49,3.09,3.09,0,0,0-.68,0,3.67,3.67,0,0,0-.92.21h0c-.14,0-1.6.7-3.27,1.45l-1-.32c-.37-.11-.71-.23-1.06-.32L10.18,8h0A4,4,0,0,0,8.5,7.69H8.39a4.86,4.86,0,0,0-.7.28.4.4,0,0,0-.14.67.88.88,0,0,0,.24.19l1.38.85.64.43-2.21,1a.35.35,0,0,1-.4,0l-1.13-.84a1.08,1.08,0,0,0-.29-.18A.86.86,0,0,0,5.34,10h0a.87.87,0,0,0-.57.27.54.54,0,0,0-.11.18v0a.47.47,0,0,0,0,.31.14.14,0,0,0,0,.06h0v0c.17.32.75,1.63,1,2.29a1,1,0,0,0,.57.54,2.69,2.69,0,0,0,1.38.07,36,36,0,0,0,4-1.37s0,.06,0,.08c-.16.89-.33,1.78-.5,2.67-.07.38-.14.75-.2,1.12s.21.63.52.52a2,2,0,0,0,.86-.45,3.06,3.06,0,0,0,.64-1l.37-.79A4,4,0,0,1,13.12,13.2Z"/><path class="cls-2" d="M19.21,12.52v-1a.36.36,0,0,0-.28-.4l-2.42-.83-.14,0-.15,0-2.41.82a.36.36,0,0,0-.28.4v1.84a2.56,2.56,0,0,0,.1.79,2.78,2.78,0,0,0,.42.93,5.06,5.06,0,0,0,2.12,1.77.41.41,0,0,0,.4,0,5.44,5.44,0,0,0,1.79-1.33,3.14,3.14,0,0,0,.85-2.24Zm-1.28.39L16.61,14.6a.46.46,0,0,1-.64.06c-.3-.24-.59-.49-.88-.75a.44.44,0,0,1-.1-.51.48.48,0,0,1,.48-.29.45.45,0,0,1,.27.12l.37.32c.05,0,.08.06.14,0,.3-.4.61-.79.92-1.18a.44.44,0,0,1,.47-.19.46.46,0,0,1,.36.31A.44.44,0,0,1,17.93,12.91Z"/></g></svg>